<svg width="1983" height="291" viewBox="0 0 1983 291" fill="none" xmlns="http://www.w3.org/2000/svg">
<g opacity="0.3">
<path d="M766.25 185.43L719.63 158.52L673.15 185.36V239.32L719.63 266.16L766.25 239.25V185.43Z" fill="#8B8B8B"/>
<path d="M1326.05 98.2201L1279.44 71.3101L1232.95 98.1501V152.12L1279.44 178.95L1326.05 152.04V98.2201Z" fill="#8B8B8B"/>
<path d="M1674.88 35.0001L1628.27 8.09009L1581.78 34.9301V88.8901L1628.27 115.73L1674.88 88.8201V35.0001Z" fill="#8B8B8B"/>
<path d="M816.39 98.1501L769.9 71.3101L723.29 98.2201V152.04L769.91 178.95L816.39 152.12V98.1501Z" fill="#8B8B8B"/>
<path d="M294.05 163.42V217.38L247.56 244.22L200.95 217.31V163.49L247.57 136.58L294.05 163.42Z" fill="#8B8B8B"/>
<path d="M150.81 76.2101L197.29 49.3701L243.91 76.2801V130.1L197.29 157.01L150.81 130.18V76.2101Z" fill="#8B8B8B"/>
<path d="M0 163.42L46.49 136.58L93.1 163.49V217.31L46.48 244.22L0 217.39V163.42Z" fill="#8B8B8B"/>
<path d="M143.24 130.18L96.76 157.01L50.27 130.17V76.2101L96.76 49.3701L143.24 76.2101V130.18Z" fill="#8B8B8B"/>
</g>
<path d="M275.02 88.7701V32.8001L323.49 4.81006L371.84 32.7201V88.8401L323.49 116.75L275.02 88.7601V88.7701ZM278.74 34.9501V86.6301L323.49 112.47L368.12 86.7001V34.8801L323.49 9.11006L278.74 34.9501Z" fill="#8B8B8B"/>
<path d="M479.65 237.16V181.19L528.12 153.21L576.47 181.13V237.24L528.12 265.15L479.65 237.16ZM483.36 183.34V235.02L528.11 260.86L572.74 235.09V183.27L528.11 157.5L483.36 183.34Z" fill="#8B8B8B"/>
<path d="M580.31 237.23V181.12L628.66 153.21L677.01 181.12V237.23L628.66 265.14L580.31 237.23ZM584.03 183.27V235.09L628.66 260.86L673.29 235.09V183.27L628.66 157.5L584.03 183.27Z" fill="#8B8B8B"/>
<path d="M529.91 149.95V93.98L578.38 65.99L626.73 93.9V150.01L578.38 177.92L529.91 149.93V149.95ZM533.63 96.13V147.8L578.38 173.64L623.01 147.87V96.05L578.38 70.28L533.63 96.12V96.13Z" fill="#8B8B8B"/>
<path d="M6.32001 239.01V183.04L54.79 155.05L103.14 182.96V239.08L54.79 266.99L6.32001 239V239.01ZM10.04 185.19V236.87L54.79 262.71L99.42 236.94V185.12L54.79 159.35L10.04 185.19Z" fill="#8B8B8B"/>
<path d="M106.98 239.08V182.96L155.33 155.05L203.8 183.04V239.01L155.32 267L106.98 239.09V239.08ZM110.7 185.12V236.94L155.33 262.7L200.09 236.86V185.19L155.34 159.35L110.71 185.12H110.7Z" fill="#8B8B8B"/>
<g opacity="0.5">
<path d="M867.69 214.45V71.24L991.08 0L1114.45 71.23V214.45L991.07 285.68L867.69 214.45ZM871.41 73.39V212.31L991.07 281.4L1110.73 212.31V73.38L991.08 4.29L871.41 73.38V73.39Z" fill="#8B8B8B"/>
</g>
<g opacity="0.5">
<g opacity="0.3">
<path d="M1334.9 145.54V183.09L1367.25 201.77L1399.68 183.04V145.59L1367.25 126.86L1334.9 145.54Z" fill="#8B8B8B"/>
<path d="M1504.63 206.28L1472.19 187.55L1439.75 206.27V243.73L1472.19 262.45L1504.63 243.73V206.28Z" fill="#8B8B8B"/>
<path d="M1434.58 84.8499L1402.23 66.1799L1369.79 84.8999V122.35L1402.23 141.08L1434.58 122.41V84.8499Z" fill="#8B8B8B"/>
<path d="M1399.68 24.22L1367.25 5.48999L1334.9 24.17V61.72L1367.25 80.4L1399.68 61.67V24.22Z" fill="#8B8B8B"/>
<path d="M1579.76 84.8499V122.4L1612.12 141.08L1644.55 122.36V84.8999L1612.11 66.1699L1579.76 84.8499Z" fill="#8B8B8B"/>
<path d="M1539.52 145.54L1507.17 126.86L1474.73 145.59V183.04L1507.17 201.77L1539.52 183.09V145.54Z" fill="#8B8B8B"/>
<path d="M1439.84 122.41L1472.19 141.08L1504.54 122.4V84.8499L1472.19 66.1699L1439.84 84.8499V122.41Z" fill="#8B8B8B"/>
<path d="M1609.57 145.59L1577.13 126.86L1544.78 145.54V183.09L1577.13 201.77L1609.57 183.04V145.59Z" fill="#8B8B8B"/>
<path d="M1299.83 243.73L1332.27 262.45L1364.7 243.73V206.28L1332.27 187.55L1299.83 206.28V243.73Z" fill="#8B8B8B"/>
</g>
<path d="M1163.32 173.3V134.35L1197.05 114.88L1230.69 134.3V173.35L1197.05 192.77L1163.32 173.3ZM1165.91 135.84V171.8L1197.05 189.78L1228.11 171.85V135.79L1197.05 117.86L1165.91 135.84Z" fill="#8B8B8B"/>
<path d="M1440.74 185.2V146.25L1474.47 126.78L1508.11 146.2V185.25L1474.47 204.67L1440.74 185.2ZM1443.33 147.75V183.71L1474.47 201.69L1505.53 183.76V147.7L1474.47 129.77L1443.33 147.75Z" fill="#8B8B8B"/>
<path d="M1750.77 91.5201V52.5701L1784.5 33.1001L1818.14 52.5201V91.5701L1784.5 110.99L1750.77 91.5201ZM1753.35 54.0701V90.0301L1784.49 108.01L1815.55 90.0801V54.0201L1784.49 36.0901L1753.35 54.0701Z" fill="#8B8B8B"/>
<path d="M552.56 60.2201V21.2701L586.29 1.80005L619.94 21.23V60.28L586.3 79.7L552.57 60.23L552.56 60.2201ZM555.15 22.76V58.7201L586.29 76.7L617.35 58.7701V22.71L586.29 4.78005L555.15 22.76Z" fill="#8B8B8B"/>
<path d="M622.61 60.2701V21.22L656.25 1.80005L689.89 21.22V60.2701L656.25 79.69L622.61 60.2701ZM625.2 22.71V58.7701L656.26 76.7L687.32 58.7701V22.71L656.26 4.78005L625.2 22.71Z" fill="#8B8B8B"/>
<path d="M1632.69 166.62V127.57L1666.33 108.15L1700.06 127.62V166.57L1666.33 186.04L1632.68 166.61L1632.69 166.62ZM1635.28 129.06V165.12L1666.34 183.05L1697.48 165.07V129.11L1666.34 111.13L1635.28 129.06Z" fill="#8B8B8B"/>
<path d="M1597.62 227.25V188.31L1631.35 168.84L1665.08 188.31V227.25L1631.35 246.72L1597.62 227.25ZM1600.21 189.8V225.76L1631.35 243.74L1662.49 225.76V189.81L1631.35 171.83L1600.21 189.81V189.8Z" fill="#8B8B8B"/>
<path d="M622.98 182.87V143.92L656.71 124.45L690.36 143.88V182.93L656.72 202.35L622.99 182.87H622.98ZM625.57 145.42V181.38L656.72 199.36L687.77 181.43V145.37L656.71 127.44L625.57 145.42Z" fill="#8B8B8B"/>
<path d="M518.04 122.19V83.25L551.77 63.77L585.5 83.24V122.19L551.77 141.66L518.04 122.18V122.19ZM520.63 84.74V120.7L551.77 138.68L582.91 120.7V84.74L551.77 66.76L520.63 84.74Z" fill="#8B8B8B"/>
<path d="M588.09 243.61V204.56L621.73 185.14L655.46 204.62V243.56L621.73 263.04L588.09 243.62V243.61ZM590.68 206.06V242.12L621.73 260.05L652.87 242.07V206.11L621.73 188.13L590.68 206.06Z" fill="#8B8B8B"/>
<path d="M378.12 243.56V204.61L411.85 185.14L445.5 204.57V243.62L411.86 263.04L378.13 243.57L378.12 243.56ZM380.71 206.11V242.07L411.85 260.05L442.91 242.12V206.06L411.85 188.13L380.71 206.11Z" fill="#8B8B8B"/>
<path d="M413.1 61.5001V22.5501L446.83 3.08008L480.47 22.5001V61.5501L446.83 80.9701L413.1 61.5001ZM415.69 24.0501V60.0101L446.83 77.9901L477.89 60.0601V24.0001L446.83 6.07008L415.69 24.0501Z" fill="#8B8B8B"/>
<path d="M483.15 182.92V143.87L516.79 124.45L550.52 143.93V182.87L516.79 202.34L483.15 182.92ZM485.73 145.37V181.43L516.79 199.36L547.93 181.38V145.43L516.79 127.45L485.74 145.38L485.73 145.37Z" fill="#8B8B8B"/>
<path d="M448.17 243.61V204.56L481.81 185.14L515.45 204.56V243.61L481.81 263.03L448.17 243.61ZM450.75 206.06V242.12L481.81 260.05L512.87 242.12V206.06L481.81 188.13L450.75 206.06Z" fill="#8B8B8B"/>
<path d="M518.13 243.61V204.56L551.78 185.13L585.42 204.55V243.6L551.78 263.02L518.14 243.6L518.13 243.61ZM520.71 206.06V242.12L551.77 260.05L582.83 242.12V206.06L551.78 188.13L520.72 206.06H520.71Z" fill="#8B8B8B"/>
<path d="M413.1 182.87V143.92L446.83 124.45L480.47 143.87V182.92L446.83 202.34L413.1 182.87ZM415.69 145.42V181.38L446.83 199.36L477.89 181.43V145.37L446.83 127.44L415.69 145.42Z" fill="#8B8B8B"/>
<path d="M483.15 61.5501V22.5001L516.79 3.08008L550.52 22.5501V61.5001L516.79 80.9801L483.15 61.5601V61.5501ZM485.73 24.0001V60.0601L516.78 77.9901L547.92 60.0101V24.0501L516.78 6.07008L485.72 24.0001H485.73Z" fill="#8B8B8B"/>
<g opacity="0.1">
<path d="M600.9 277.95V252.48L622.84 239.81L644.85 252.51V277.92L622.84 290.62L600.9 277.95Z" fill="#8B8B8B"/>
<path d="M658.81 210.77V185.29L680.75 172.62L702.75 185.33V210.73L680.75 223.44L658.81 210.77Z" fill="#8B8B8B"/>
<path d="M313.93 180.86V155.39L335.88 142.72L357.88 155.42V180.83L335.88 193.53L313.93 180.86Z" fill="#8B8B8B"/>
<path d="M797.95 252.48V277.95L776.01 290.62L754.01 277.92V252.51L776.01 239.81L797.95 252.48Z" fill="#8B8B8B"/>
<path d="M437.98 206.3V231.77L416.03 244.44L394.03 231.74V206.33L416.03 193.63L437.98 206.3Z" fill="#8B8B8B"/>
<path d="M417.76 247.5L439.76 234.79L461.77 247.5V272.9L439.76 285.61L417.76 272.9V247.5Z" fill="#8B8B8B"/>
<path d="M845.47 277.92L823.47 290.62L801.52 277.95V252.48L823.47 239.81L845.47 252.51V277.92Z" fill="#8B8B8B"/>
<path d="M597.33 277.95L575.39 290.62L553.38 277.92V252.51L575.39 239.81L597.33 252.48V277.95Z" fill="#8B8B8B"/>
<path d="M1772.52 156.92V131.44L1794.47 118.77L1816.47 131.47V156.88L1794.46 169.58L1772.52 156.92Z" fill="#8B8B8B"/>
<path d="M1887.66 115.71L1865.65 128.42L1843.65 115.71V90.3099L1865.65 77.5999L1887.66 90.3099V115.71Z" fill="#8B8B8B"/>
<path d="M1840.14 198.08L1818.2 210.75L1796.19 198.05V172.64L1818.2 159.94L1840.14 172.61V198.08Z" fill="#8B8B8B"/>
<path d="M1938.63 198.08V172.61L1960.57 159.94L1982.57 172.64V198.05L1960.57 210.75L1938.63 198.08Z" fill="#8B8B8B"/>
<path d="M1914.9 74.5799V49.1099L1936.84 36.4399L1958.84 49.1399V74.5499L1936.84 87.2499L1914.9 74.5799Z" fill="#8B8B8B"/>
<path d="M1911.33 156.91L1889.38 169.58L1867.38 156.88V131.48L1889.38 118.77L1911.33 131.44V156.91Z" fill="#8B8B8B"/>
<path d="M1891.17 172.61L1913.11 159.94L1935.06 172.61V198.08L1913.11 210.75L1891.17 198.08V172.61Z" fill="#8B8B8B"/>
<path d="M1843.71 172.61L1865.65 159.94L1887.6 172.61V198.08L1865.65 210.75L1843.71 198.08V172.61Z" fill="#8B8B8B"/>
<path d="M1958.84 156.88L1936.84 169.58L1914.9 156.91V131.44L1936.84 118.77L1958.84 131.47V156.88Z" fill="#8B8B8B"/>
<path d="M1911.33 74.5799L1889.38 87.2499L1867.38 74.5499V49.1399L1889.38 36.4399L1911.33 49.1099V74.5799Z" fill="#8B8B8B"/>
</g>
<g opacity="0.5">
<path d="M1398.52 202.91V103.52L1484.61 53.8201L1570.46 103.39V203.05L1484.61 252.62L1398.52 202.92V202.91ZM1401.11 105.02V201.42L1484.61 249.63L1567.87 201.56V104.88L1484.61 56.8101L1401.11 105.02Z" fill="#8B8B8B"/>
<path d="M1581.63 203.05V103.39L1667.49 53.8201L1753.57 103.52V202.92L1667.48 252.62L1581.63 203.05ZM1584.22 104.88V201.56L1667.48 249.63L1750.98 201.42V105.01L1667.48 56.8001L1584.21 104.88H1584.22Z" fill="#8B8B8B"/>
</g>
</g>
</svg>
