<svg width="1000" height="200" viewBox="0 0 1000 200" fill="none" xmlns="http://www.w3.org/2000/svg">
<g clip-path="url(#clip0_2_2)">
<text fill="#8957E5" xml:space="preserve" style="white-space: pre" font-family="Inter" font-size="40" font-weight="bold" letter-spacing="0em"><tspan x="393" y="114.545">ABOUT ME</tspan></text>
<path d="M126.705 241.437H98.3636C98.272 239.178 96.4174 237.374 94.1369 237.374C93.4271 237.374 92.7585 237.55 92.17 237.859L78.0518 213.41L78.0015 213.323H45.3346L29.0504 241.522L29 241.609L45.2842 269.804L45.3346 269.891H77.8046L93.9903 297.915L94.0407 298.002H126.708L142.992 269.807L143.042 269.72L126.758 241.524L126.708 241.437H126.705ZM77.8023 269.548H45.5315L29.3961 241.609L45.5315 213.669H77.8023L91.8724 238.033C90.6886 238.784 89.8986 240.102 89.8986 241.609C89.8986 243.115 90.6863 244.433 91.8724 245.184L77.8023 269.548ZM126.506 297.657H94.2353L78.0999 269.717L92.17 245.356C92.7585 245.665 93.4271 245.841 94.1369 245.841C96.4174 245.841 98.2743 244.037 98.3636 241.778H126.506L142.641 269.717L126.506 297.657ZM224.111 241.437H191.444L175.16 269.633L175.109 269.72L191.393 297.915L191.444 298.002H224.111L240.395 269.807L240.445 269.72L224.161 241.524L224.111 241.437ZM223.914 297.657H191.643L175.508 269.717L191.643 241.778H223.914L240.049 269.717L223.914 297.657ZM370.222 213.326H337.752L321.617 185.386L337.802 157.362L337.853 157.275L323.684 132.74C324.868 131.989 325.658 130.67 325.658 129.164C325.658 127.658 324.87 126.34 323.684 125.589L337.805 101.14L337.855 101.053L321.571 72.8575L321.521 72.7705H289.051L272.865 44.7464L272.814 44.6595H244.473C244.381 42.4002 242.526 40.5965 240.246 40.5965C239.536 40.5965 238.868 40.7728 238.279 41.0818L224.209 16.7201L240.395 -11.304L240.445 -11.3887L224.161 -39.5844L224.111 -39.6691H195.769C195.677 -41.9284 193.823 -43.7321 191.542 -43.7321C190.832 -43.7321 190.164 -43.5558 189.575 -43.2468L175.505 -67.6085L191.691 -95.6326L191.741 -95.7173L175.457 -123.915L175.407 -124H142.74L126.456 -95.8043L126.405 -95.7196L140.574 -71.1839C139.39 -70.4331 138.6 -69.1147 138.6 -67.6085C138.6 -66.1024 139.388 -64.7839 140.574 -64.0331L126.504 -39.6691H94.0338L77.8 -11.5581H45.3346L29.0504 16.6377L29 16.7246L45.2338 44.8357L29.0504 72.8598L29 72.9468L45.2842 101.143L45.3346 101.229H73.6763C73.7678 103.489 75.6225 105.292 77.903 105.292C78.6128 105.292 79.2814 105.116 79.8698 104.807L93.988 129.256L94.0384 129.343H126.508L142.644 157.282L126.458 185.306L126.408 185.393L142.692 213.589L142.742 213.676H175.409L191.693 185.48L191.744 185.393L175.51 157.282L191.645 129.343H224.115L240.349 101.232H272.62L288.755 129.171L272.62 157.111H244.477C244.386 154.851 242.531 153.048 240.251 153.048C237.97 153.048 236.015 154.943 236.015 157.282C236.015 158.788 236.802 160.107 237.988 160.858L223.868 185.306L223.818 185.393L240.102 213.589L240.152 213.676H268.494C268.585 215.935 270.44 217.739 272.721 217.739C273.43 217.739 274.099 217.563 274.687 217.254L288.757 241.615L272.572 269.639L272.521 269.726L288.806 297.922L288.856 298.009H321.523L337.757 269.898H370.227L386.511 241.702L386.561 241.615L370.277 213.42L370.227 213.333L370.222 213.326ZM237.984 41.2603C236.8 42.0111 236.01 43.3295 236.01 44.8357C236.01 46.3419 236.798 47.6603 237.984 48.4111L223.914 72.7751H191.643L175.508 44.8357L191.643 16.8963H223.914L237.984 41.2603ZM128.869 13.1493L137.561 -1.90084L142.939 -11.2147H175.21L176.996 -8.12002L191.345 16.7246L175.21 44.664H142.939L128.869 20.3C130.053 19.5493 130.843 18.2308 130.843 16.7246C130.843 15.2185 130.055 13.9 128.869 13.1493ZM137.263 35.5218L142.641 44.8357L138.499 52.0094L126.506 72.7751H94.2353L92.4219 69.6369L78.0999 44.838L94.2353 16.8986H122.378C122.469 19.1578 124.324 20.9616 126.605 20.9616C127.314 20.9616 127.983 20.7853 128.571 20.4763L137.263 35.5241V35.5218ZM137.561 54.319L142.939 45.0051H175.21L177.023 48.1433L191.345 72.9422L177.275 97.3039C176.687 96.9949 176.018 96.8186 175.308 96.8186C173.028 96.8186 171.171 98.6223 171.082 100.882H142.939L126.804 72.9422L137.561 54.3167V54.319ZM189.578 -35.7481C190.166 -35.4391 190.835 -35.2628 191.544 -35.2628C193.825 -35.2628 195.682 -37.0665 195.771 -39.3258H223.914L240.049 -11.3864L223.914 16.553H191.643L175.508 -11.3864L189.578 -35.7481ZM126.804 -95.7173L142.939 -123.657H175.21L191.345 -95.7173L175.21 -67.7779H147.067C146.976 -70.0371 145.121 -71.8408 142.841 -71.8408C142.131 -71.8408 141.462 -71.6646 140.874 -71.3556L126.804 -95.7173ZM140.874 -63.8591C141.462 -63.5501 142.131 -63.3739 142.841 -63.3739C145.121 -63.3739 146.978 -65.1776 147.067 -67.4368H175.21L189.28 -43.0729C188.096 -42.3221 187.306 -41.0036 187.306 -39.4975C187.306 -37.9913 188.094 -36.6728 189.28 -35.9221L175.21 -11.5581H142.939L126.804 -39.4975L140.874 -63.8591ZM94.2353 -39.3258H126.506L137.263 -20.7003L142.641 -11.3864L138.543 -4.28825L128.574 12.9753C127.985 12.6663 127.317 12.49 126.607 12.49C124.326 12.49 122.469 14.2937 122.38 16.553H94.2376L92.4516 13.4583L78.1022 -11.3864L94.2376 -39.3258H94.2353ZM29.3961 16.7246L45.5315 -11.2147H77.8023L93.9376 16.7246L77.8023 44.664H45.5315L29.3961 16.7246ZM79.8676 97.3062C79.2791 96.9972 78.6105 96.8209 77.9007 96.8209C75.6202 96.8209 73.7633 98.6246 73.674 100.884H45.5315L29.3961 72.9445L45.5315 45.0051H77.8023L93.9376 72.9445L79.8676 97.3062ZM126.506 128.995H94.2353L80.1652 104.631C81.349 103.88 82.1389 102.562 82.1389 101.056C82.1389 99.5494 81.3513 98.2309 80.1652 97.4801L94.2353 73.1162H126.506L137.263 91.7416L142.641 101.056L138.543 108.154L126.506 128.995ZM191.345 185.386L175.21 213.326H142.939L126.804 185.386L142.939 157.447H175.21L191.345 185.386ZM175.21 157.106H142.939L126.804 129.167L137.561 110.541L142.939 101.227H171.082C171.173 103.486 173.028 105.29 175.308 105.29C176.018 105.29 176.687 105.114 177.275 104.805L191.345 129.167L175.21 157.106ZM223.914 128.995H191.643L177.573 104.631C178.757 103.88 179.547 102.562 179.547 101.056C179.547 99.5494 178.759 98.2309 177.573 97.4801L191.643 73.1162H223.914L227.98 80.1594L240.049 101.056L223.914 128.995ZM272.617 100.884H240.347L236.28 93.8406L224.214 72.9445L238.284 48.5828C238.872 48.8918 239.541 49.068 240.251 49.068C242.531 49.068 244.388 47.2643 244.477 45.0051H272.62L288.755 72.9445L272.62 100.884H272.617ZM272.915 101.056L289.051 73.1162H321.321L337.457 101.056L323.387 125.417C322.798 125.108 322.13 124.932 321.42 124.932C319.139 124.932 317.282 126.736 317.193 128.995H289.051L272.915 101.056ZM289.051 129.338H317.193C317.285 131.597 319.139 133.401 321.42 133.401C322.13 133.401 322.798 133.225 323.387 132.916L337.457 157.278L321.321 185.217H289.051L272.915 157.278L289.051 129.338ZM274.683 209.748C274.094 209.439 273.426 209.263 272.716 209.263C270.435 209.263 268.578 211.067 268.489 213.326H240.347L224.211 185.386L238.281 161.025C238.87 161.334 239.538 161.51 240.248 161.51C242.529 161.51 244.386 159.706 244.475 157.447H272.617L288.753 185.386L274.683 209.748ZM274.978 217.073C276.162 216.322 276.952 215.004 276.952 213.497C276.952 211.991 276.164 210.673 274.978 209.922L289.048 185.558H321.319L337.454 213.497L326.697 232.123L321.319 241.437H289.048L274.978 217.073ZM321.321 297.657H289.051L272.915 269.717L289.051 241.778H321.321L337.457 269.717L321.321 297.657ZM370.025 269.548H337.754L326.997 250.922L321.619 241.609L325.717 234.51L337.754 213.669H370.025L386.16 241.609L370.025 269.548ZM386.259 185.558H418.926L435.21 157.362L435.26 157.275L418.976 129.08L418.926 128.993H386.259L369.975 157.188L369.924 157.275L386.209 185.471L386.259 185.558ZM386.456 129.338H418.727L434.862 157.278L418.727 185.217H386.456L370.32 157.278L386.456 129.338ZM483.667 -39.3258H512.008C512.1 -37.0665 513.954 -35.2628 516.235 -35.2628C516.945 -35.2628 517.613 -35.4391 518.202 -35.7481L532.32 -11.2994L532.37 -11.2147H565.037L581.321 -39.4105L581.372 -39.4952L565.088 -67.6909L565.037 -67.7756H532.567L516.382 -95.7997L516.331 -95.8844H483.664L467.38 -67.6886L467.33 -67.6039L483.614 -39.4082L483.664 -39.3235L483.667 -39.3258ZM532.567 -67.4368H564.838L580.973 -39.4975L564.838 -11.5581H532.567L518.497 -35.9221C519.681 -36.6728 520.471 -37.9913 520.471 -39.4975C520.471 -41.0036 519.683 -42.3221 518.497 -43.0729L523.333 -51.446L532.567 -67.4368ZM483.863 -95.5456H516.134L532.27 -67.6062L525.369 -55.6577L518.2 -43.2445C517.611 -43.5535 516.942 -43.7298 516.233 -43.7298C513.952 -43.7298 512.095 -41.9261 512.006 -39.6668H483.863L467.728 -67.6062L483.863 -95.5456ZM516.333 241.437H487.992C487.9 239.178 486.046 237.374 483.765 237.374C483.055 237.374 482.387 237.55 481.798 237.859L467.68 213.41L467.63 213.323H434.963L418.679 241.519L418.628 241.606L434.912 269.802L434.963 269.889H467.433L483.618 297.913L483.669 298H516.336L532.62 269.804L532.67 269.717L516.386 241.522L516.336 241.435L516.333 241.437ZM467.43 269.548H435.16L419.024 241.609L435.16 213.669H467.43L481.501 238.033C480.317 238.784 479.527 240.102 479.527 241.609C479.527 243.115 480.314 244.433 481.501 245.184L467.43 269.548ZM516.134 297.657H483.863L467.728 269.717L481.798 245.356C482.387 245.665 483.055 245.841 483.765 245.841C486.046 245.841 487.902 244.037 487.992 241.778H516.134L532.27 269.717L516.134 297.657ZM565.037 157.106H532.37L516.086 185.302L516.036 185.389L532.32 213.584L532.37 213.671H565.037L581.321 185.476L581.372 185.389L565.088 157.193L565.037 157.106ZM564.838 213.326H532.567L516.432 185.386L532.567 157.447H564.838L580.973 185.386L564.838 213.326ZM662.445 213.326H634.103C634.012 211.067 632.157 209.263 629.876 209.263C627.596 209.263 625.641 211.158 625.641 213.497C625.641 215.004 626.428 216.322 627.614 217.073L613.544 241.437H581.074L564.79 269.633L564.74 269.72L581.024 297.915L581.074 298.002H613.741L629.975 269.891H662.445L678.729 241.695L678.779 241.609L662.495 213.413L662.445 213.326ZM613.542 297.657H581.271L565.136 269.717L581.271 241.778H613.542L629.677 269.717L613.542 297.657ZM662.246 269.548H629.975L613.84 241.609L627.91 217.247C628.498 217.556 629.167 217.732 629.876 217.732C632.157 217.732 634.014 215.928 634.103 213.669H662.246L678.381 241.609L662.246 269.548ZM857.258 213.326H824.788L808.602 185.302L808.552 185.215H775.885L759.651 213.326H727.181L710.897 241.522L710.846 241.609L727.131 269.804L727.181 269.891H759.651L775.837 297.915L775.887 298.002H808.554L824.788 269.891H857.258L873.542 241.695L873.592 241.609L857.308 213.413L857.258 213.326ZM776.086 185.558H808.357L824.492 213.497L817.591 225.446L808.357 241.437H780.215C780.123 239.178 778.268 237.374 775.988 237.374C775.278 237.374 774.609 237.55 774.021 237.859L759.951 213.497L776.086 185.558ZM759.653 269.548H727.382L711.247 241.609L727.382 213.669H759.653L773.723 238.033C772.54 238.784 771.75 240.102 771.75 241.609C771.75 243.115 772.537 244.433 773.723 245.184L768.874 253.582L759.653 269.546V269.548ZM808.357 297.657H776.086L759.951 269.717L766.866 257.744L774.021 245.356C774.609 245.665 775.278 245.841 775.988 245.841C778.268 245.841 780.125 244.037 780.215 241.778H808.357L824.492 269.717L808.357 297.657ZM857.061 269.548H824.79L808.655 241.609L815.556 229.66L824.79 213.669H857.061L873.196 241.609L857.061 269.548ZM971 72.9445L954.766 44.8334L970.952 16.8093L971.002 16.7224L954.718 -11.4734L954.668 -11.5581H922.198L906.012 -39.5821L905.962 -39.6668H873.295L859.126 -15.1335C858.538 -15.4425 857.869 -15.6187 857.159 -15.6187C854.879 -15.6187 853.022 -13.815 852.933 -11.5558H824.79L808.655 -39.4952L824.79 -67.4345H857.26L873.544 -95.6303L873.595 -95.715L857.308 -123.915L857.258 -124H824.591L808.357 -95.8889H776.086L759.901 -123.915L759.85 -124H727.183L710.949 -95.8889H678.679L662.493 -123.915L662.443 -124H629.776L613.491 -95.8043L613.441 -95.7196L629.675 -67.6085L613.489 -39.5844L613.439 -39.4997L629.723 -11.304L629.773 -11.2193H658.115C658.207 -8.96008 660.061 -7.15635 662.342 -7.15635C663.052 -7.15635 663.72 -7.33261 664.309 -7.64162L678.427 16.8071L678.477 16.894H710.947L727.133 44.9181L727.183 45.0051H759.653L775.789 72.9445L761.719 97.3062C761.13 96.9972 760.462 96.8209 759.752 96.8209C757.471 96.8209 755.614 98.6246 755.525 100.884H727.183L710.899 129.08L710.849 129.167L727.133 157.362L727.183 157.449H759.85L776.084 129.338H808.554L824.788 101.227H857.059L873.194 129.167L859.124 153.528C858.535 153.219 857.867 153.043 857.157 153.043C854.817 153.043 852.921 154.938 852.921 157.278C852.921 159.617 854.817 161.512 857.157 161.512C857.867 161.512 858.535 161.336 859.124 161.027L873.242 185.473L873.292 185.56H905.959L922.193 157.449H954.663L970.947 129.254L970.998 129.167L954.764 101.056L970.95 73.0315L971 72.9445ZM922.195 -11.2147H954.466L970.602 16.7246L954.466 44.664H922.195L906.06 16.7246L912.961 4.77614L922.195 -11.2147ZM921.898 44.8334L914.99 56.7957L905.762 72.7728H877.62C877.528 70.5136 875.674 68.7098 873.393 68.7098C872.683 68.7098 872.015 68.8861 871.426 69.1951L857.356 44.8334L873.492 16.894H905.762L921.898 44.8334ZM873.492 -39.3258H905.762L921.898 -11.3864L914.997 0.562111L905.762 16.553H873.492L859.422 -7.811C860.605 -8.56179 861.395 -9.88024 861.395 -11.3864C861.395 -12.8926 860.608 -14.211 859.422 -14.9618L873.492 -39.3258ZM824.79 -11.2147H852.933C853.024 -8.95549 854.879 -7.15177 857.159 -7.15177C857.869 -7.15177 858.538 -7.32803 859.126 -7.63704L873.196 16.7246L857.061 44.664H824.79L808.655 16.7246L815.556 4.77614L824.79 -11.2147ZM824.492 -11.3864L817.591 0.562111L808.357 16.553H780.215C780.123 14.2937 778.268 12.49 775.988 12.49C775.278 12.49 774.609 12.6663 774.021 12.9753L759.951 -11.3864L766.859 -23.3486L776.086 -39.3258H808.357L824.492 -11.3864ZM759.653 -11.5581H727.382L711.247 -39.4975L715.266 -46.4583L725.315 -63.8614C725.903 -63.5524 726.572 -63.3762 727.282 -63.3762C729.562 -63.3762 731.419 -65.1799 731.508 -67.4391H759.651L775.786 -39.4997L768.878 -27.5375L759.651 -11.5604L759.653 -11.5581ZM824.79 -123.657H857.061L873.196 -95.7173L857.061 -67.7779H824.79L808.655 -95.7173L824.79 -123.657ZM776.086 -95.5456H808.357L824.492 -67.6062L808.357 -39.6668H776.086L759.951 -67.6062L766.859 -79.5685L776.086 -95.5456ZM727.382 -123.657H759.653L775.789 -95.7173L768.881 -83.755L759.653 -67.7779H731.511C731.419 -70.0371 729.565 -71.8408 727.284 -71.8408C726.574 -71.8408 725.906 -71.6646 725.317 -71.3556L711.247 -95.7173L727.382 -123.657ZM678.679 -95.5456H710.949L725.02 -71.1816C723.836 -70.4308 723.046 -69.1124 723.046 -67.6062C723.046 -66.1001 723.834 -64.7816 725.02 -64.0308L710.949 -39.6668H678.679L662.543 -67.6062L669.451 -79.5685L678.679 -95.5456ZM613.84 -95.7173L629.975 -123.657H662.246L678.381 -95.7173L671.473 -83.755L662.246 -67.7779H629.975L613.84 -95.7173ZM664.311 -15.1358C663.722 -15.4448 663.054 -15.621 662.344 -15.621C660.064 -15.621 658.207 -13.8173 658.117 -11.5581H629.975L613.84 -39.4975L629.975 -67.4368H662.246L678.381 -39.4975L671.473 -27.5352L664.311 -15.1358ZM710.949 16.553H678.679L664.609 -7.811C665.792 -8.56179 666.582 -9.88024 666.582 -11.3864C666.582 -12.8926 665.795 -14.211 664.609 -14.9618L669.451 -23.3486L678.679 -39.3258H710.949L727.085 -11.3864L710.949 16.553ZM759.653 44.664H727.382L711.247 16.7246L715.266 9.76384L727.382 -11.2147H759.653L773.723 13.1493C772.54 13.9 771.75 15.2185 771.75 16.7246C771.75 18.2308 772.537 19.5493 773.723 20.3L768.881 28.6869L759.653 44.664ZM759.951 44.8357L766.859 32.8735L774.021 20.474C774.609 20.783 775.278 20.9593 775.988 20.9593C778.268 20.9593 780.125 19.1556 780.215 16.8963H808.357L824.492 44.8357L817.585 56.798L808.357 72.7751H776.086L759.951 44.8357ZM759.653 157.106H727.382L711.247 129.167L727.382 101.227H755.525C755.617 103.486 757.471 105.29 759.752 105.29C760.462 105.29 761.13 105.114 761.719 104.805L775.789 129.167L759.653 157.106ZM808.357 128.995H776.086L762.016 104.631C763.2 103.88 763.99 102.562 763.99 101.056C763.99 99.5494 763.202 98.2309 762.016 97.4801L776.086 73.1162H808.357L824.492 101.056L808.357 128.995ZM824.79 100.884L808.655 72.9445L815.563 60.9822L824.79 45.0051H857.061L871.131 69.3691C869.947 70.1199 869.157 71.4383 869.157 72.9445C869.157 74.4506 869.945 75.7691 871.129 76.5199L857.059 100.884H824.788H824.79ZM857.359 101.056L871.429 76.6938C872.017 77.0029 872.686 77.1791 873.395 77.1791C875.676 77.1791 877.533 75.3754 877.622 73.1162H905.765L921.9 101.056L914.999 113.004L905.765 128.995H873.494L857.359 101.056ZM905.762 185.215H873.492L859.422 160.851C860.605 160.1 861.395 158.781 861.395 157.275C861.395 155.769 860.608 154.451 859.422 153.7L873.492 129.336H905.762L921.898 157.275L905.762 185.215ZM970.602 129.167L954.466 157.106H922.195L906.06 129.167L912.961 117.218L922.195 101.227H954.466L970.602 129.167ZM954.466 100.884H922.195L906.06 72.9445L912.968 60.9822L922.195 45.0051H954.466L970.602 72.9445L954.466 100.884Z" fill="#8957E5" fill-opacity="0.25"/>
<path d="M423.48 239.892H399.921L388.166 219.538L388.141 219.495H364.58L352.85 199.184L364.605 178.831L364.631 178.787L352.85 158.39L364.605 138.036L364.631 137.993L352.825 117.552L352.8 117.509H329.241L317.486 97.1551L317.461 97.1116H296.137C296.091 95.887 295.088 94.9096 293.852 94.9096C293.465 94.9096 293.101 95.0057 292.783 95.1751L282.172 76.8014L293.902 56.4912H317.461L329.267 36.0506L329.292 36.0071L317.486 15.5664L317.461 15.5229H296.137C296.091 14.2983 295.088 13.3209 293.852 13.3209C293.465 13.3209 293.101 13.4171 292.783 13.5865L282.172 -4.78725L293.902 -25.0974H317.461L329.267 -45.5381L329.292 -45.5816L317.511 -65.9787L329.267 -86.3324L329.292 -86.3759L317.486 -106.817L317.461 -106.86H293.802L282.021 -86.4629H258.561L246.806 -106.817L246.781 -106.86H223.121L211.341 -86.4629H187.881L176.126 -106.817L176.101 -106.86H152.441L140.661 -86.4629H117.102L105.297 -66.0222L105.272 -65.9787L117.077 -45.5381L117.102 -45.4946H140.762L151.422 -63.9553C151.741 -63.7859 152.105 -63.6898 152.492 -63.6898C153.728 -63.6898 154.731 -64.6694 154.777 -65.8918H176.002L187.732 -45.5816L175.977 -25.2279L175.952 -25.1844L187.732 -4.78725L176.002 15.5229H152.542L140.787 -4.83074L140.762 -4.87423H119.438C119.392 -6.09884 118.389 -7.07853 117.153 -7.07853C116.766 -7.07853 116.402 -6.98239 116.083 -6.81301L105.448 -25.2302L105.423 -25.2737H81.7634L69.9601 -4.83303L69.9349 -4.78954L81.7153 15.6076L69.9601 35.9613L69.9349 36.0048L80.5957 54.4655C79.9523 54.8706 79.5241 55.5848 79.5241 56.402C79.5241 57.2191 79.9523 57.9333 80.5957 58.3385L69.9601 76.7556L69.9349 76.7991L81.7405 97.2398L81.7657 97.2833H105.425L117.205 76.8861H140.764L152.544 56.489H176.004L187.734 76.7991L175.979 97.1528L175.954 97.1963L187.734 117.593L176.004 137.904H152.446L141.785 156.362C141.467 156.193 141.103 156.097 140.716 156.097C139.452 156.097 138.426 157.122 138.426 158.386C138.426 159.649 139.452 160.675 140.716 160.675C141.103 160.675 141.467 160.578 141.785 160.409L152.396 178.783L140.665 199.095H117.107L105.301 219.536L105.276 219.579L115.937 238.04C115.294 238.445 114.865 239.159 114.865 239.976C114.865 240.794 115.294 241.508 115.937 241.913L105.299 260.33L105.274 260.374L117.079 280.814L117.105 280.858H140.764L152.544 260.461H176.004L187.76 280.814L187.785 280.858H211.444L223.225 260.461H246.685L258.44 280.814L258.465 280.858H282.124L293.905 260.461H317.365L329.12 280.814L329.145 280.858H352.804L364.585 260.461H388.045L399.8 280.814L399.825 280.858H423.485L435.288 260.417L435.313 260.374L423.507 239.933L423.482 239.889L423.48 239.892ZM364.434 219.582L353.823 237.955C353.505 237.786 353.141 237.69 352.754 237.69C351.518 237.69 350.515 238.669 350.469 239.894H329.244L321.424 226.352L317.514 219.582L329.244 199.271H352.704L364.434 219.582ZM212.612 115.659L216.525 108.886L223.225 97.2856H246.685L258.415 117.596L246.685 137.906H223.225L212.612 119.53C213.255 119.125 213.683 118.411 213.683 117.593C213.683 116.776 213.255 116.062 212.612 115.657V115.659ZM212.612 -6.72145L216.525 -13.4946L223.225 -25.0951H246.685L258.415 -4.78496L253.377 3.93837L246.685 15.5275H223.225L212.612 -2.84847C213.255 -3.25362 213.683 -3.96779 213.683 -4.78496C213.683 -5.60213 213.255 -6.3163 212.612 -6.72145ZM211.494 -45.5793L216.525 -54.2889L223.225 -65.8895H246.685L258.415 -45.5793L253.384 -36.8697L246.685 -25.2691H223.225L211.494 -45.5793ZM246.685 15.6969L258.415 36.0071L253.384 44.7167L247.804 54.3808C247.486 54.2114 247.122 54.1153 246.735 54.1153C245.499 54.1153 244.496 55.095 244.45 56.3173H223.225L211.494 36.0071L216.525 27.2975L223.225 15.6969H246.685ZM244.45 56.4912C244.496 57.7158 245.499 58.6955 246.735 58.6955C247.122 58.6955 247.486 58.5994 247.804 58.43L258.415 76.8037L253.384 85.5133L246.685 97.1139H223.225L211.494 76.8037L216.525 68.0941L223.225 56.4935H244.45V56.4912ZM246.783 138.08L258.563 117.683H282.024L293.779 138.036L293.804 138.08H317.362L327.975 156.456C327.332 156.861 326.904 157.575 326.904 158.392C326.904 159.21 327.332 159.924 327.975 160.329L317.362 178.705H296.137C296.091 177.48 295.088 176.501 293.852 176.501C292.616 176.501 291.562 177.526 291.562 178.79C291.562 179.607 291.991 180.321 292.634 180.726L282.021 199.102H258.561L246.806 178.748L246.781 178.705H223.222L211.492 158.395L223.222 138.082H246.781L246.783 138.08ZM223.076 178.787L218.045 187.497L212.465 197.161C212.147 196.992 211.783 196.895 211.396 196.895C210.16 196.895 209.157 197.875 209.111 199.1H187.886L176.156 178.79L181.186 170.08L187.886 158.479H211.346L223.076 178.79V178.787ZM209.109 199.269C209.154 200.494 210.16 201.471 211.394 201.471C211.781 201.471 212.145 201.375 212.463 201.206L223.073 219.579L218.043 228.289L211.343 239.889H187.883L176.153 219.579L181.184 210.87L187.883 199.269H209.109ZM212.612 201.121C213.255 200.716 213.683 200.002 213.683 199.184C213.683 198.367 213.255 197.653 212.612 197.248L216.525 190.475L223.225 178.874H246.685L258.415 199.184L253.384 207.894L247.804 217.558C247.486 217.389 247.122 217.293 246.735 217.293C245.499 217.293 244.496 218.272 244.45 219.497H223.225L212.612 201.121ZM247.951 217.645L251.864 210.872L258.563 199.271H282.024L293.754 219.582L288.723 228.291L282.024 239.892H258.563L247.951 221.516C248.594 221.111 249.022 220.396 249.022 219.579C249.022 218.762 248.594 218.048 247.951 217.643V217.645ZM282.172 199.184L292.783 180.811C293.101 180.98 293.465 181.076 293.852 181.076C295.088 181.076 296.091 180.097 296.137 178.874H317.362L322.393 187.584L329.092 199.184L321.273 212.726L317.362 219.497H293.902L282.172 199.187V199.184ZM364.434 178.787L352.704 199.097H329.244L321.424 185.556L317.514 178.785L328.124 160.411C328.442 160.581 328.806 160.677 329.193 160.677C330.43 160.677 331.433 159.697 331.478 158.475H352.704L364.434 178.785V178.787ZM352.704 117.683L364.434 137.993L352.704 158.303H331.478C331.433 157.079 330.43 156.099 329.193 156.099C328.806 156.099 328.442 156.195 328.124 156.364L317.514 137.991L329.244 117.68H352.704V117.683ZM292.785 99.2221C293.103 99.3914 293.467 99.4876 293.854 99.4876C295.091 99.4876 296.094 98.5079 296.139 97.2856H317.365L329.095 117.596L321.276 131.137L317.365 137.908H293.905L282.175 117.598L287.205 108.888L292.785 99.2243V99.2221ZM292.636 95.2621C291.993 95.6673 291.565 96.3814 291.565 97.1986C291.565 98.0158 291.993 98.7299 292.636 99.1351L288.723 105.908L282.024 117.509H258.563L246.833 97.1986L251.864 88.489L258.563 76.8884H282.024L292.636 95.2644V95.2621ZM282.024 76.7167H258.563L247.951 58.3407C248.594 57.9356 249.022 57.2214 249.022 56.4043C249.022 55.5871 248.594 54.8729 247.951 54.4678L251.864 47.6947L258.563 36.0941H282.024L293.754 56.4043L282.024 76.7144V76.7167ZM292.785 17.6334C293.103 17.8028 293.467 17.8989 293.854 17.8989C295.091 17.8989 296.094 16.9192 296.139 15.6946H317.365L329.095 36.0048L317.365 56.315H293.905L282.175 36.0048L287.205 27.2952L292.785 17.6311V17.6334ZM292.636 13.6757C291.993 14.0809 291.565 14.795 291.565 15.6122C291.565 16.4294 291.993 17.1435 292.636 17.5487L288.723 24.3218L282.024 35.9224H258.563L246.833 15.6122L251.871 6.88888L258.563 -4.70027H282.024L292.636 13.6734V13.6757ZM282.024 -4.87194H258.563L246.833 -25.1821L251.864 -33.8917L258.563 -45.4923H279.789C279.835 -44.2677 280.837 -43.2903 282.074 -43.2903C282.461 -43.2903 282.825 -43.3864 283.143 -43.5558L293.754 -25.1821L282.024 -4.87194ZM329.095 -45.5793L317.365 -25.2691H293.905L283.292 -43.6451C283.935 -44.0503 284.364 -44.7644 284.364 -45.5816C284.364 -46.3988 283.935 -47.1129 283.292 -47.5181L287.205 -54.2912L293.905 -65.8918H317.365L329.095 -45.5816V-45.5793ZM293.902 -106.686H317.362L329.092 -86.3759L317.362 -66.0657H293.902L282.172 -86.3759L293.902 -106.686ZM258.563 -86.2889H282.024L293.754 -65.9787L288.723 -57.2692L283.143 -47.605C282.825 -47.7744 282.461 -47.8706 282.074 -47.8706C280.837 -47.8706 279.835 -46.8909 279.789 -45.6663H258.563L246.833 -65.9765L251.864 -74.6861L258.563 -86.2866V-86.2889ZM223.225 -106.686H246.685L258.415 -86.3759L253.384 -77.6663L246.685 -66.0657H223.225L211.494 -86.3759L223.225 -106.686ZM140.665 -45.6663H117.205L105.475 -65.9765L117.205 -86.2866H140.665L151.278 -67.9107C150.635 -67.5055 150.207 -66.7913 150.207 -65.9742C150.207 -65.157 150.635 -64.4428 151.278 -64.0377L140.665 -45.6617V-45.6663ZM176.007 -66.0634H154.781C154.736 -67.288 153.733 -68.2654 152.496 -68.2654C152.109 -68.2654 151.745 -68.1693 151.427 -67.9999L140.817 -86.3736L152.547 -106.684H176.007L187.737 -86.3736L182.706 -77.664L176.007 -66.0634ZM176.156 -65.9765L181.186 -74.6861L187.886 -86.2866H211.346L223.076 -65.9765L218.045 -57.2669L211.346 -45.6663H187.886L176.156 -65.9765ZM176.156 -25.1821L187.886 -45.4923H211.346L223.076 -25.1821L218.045 -16.4725L212.465 -6.80842C212.147 -6.97781 211.783 -7.07395 211.396 -7.07395C210.16 -7.07395 209.157 -6.09426 209.111 -4.86965H187.886L176.156 -25.1798V-25.1821ZM187.886 -4.70027H209.111C209.157 -3.47566 210.16 -2.49826 211.396 -2.49826C211.783 -2.49826 212.147 -2.59439 212.465 -2.76378L223.076 15.6099L218.045 24.3195L211.346 35.9201H190.12C190.075 34.6955 189.072 33.7181 187.835 33.7181C187.448 33.7181 187.084 33.8142 186.766 33.9836L176.156 15.6099L187.886 -4.70027ZM116.088 -2.76378C116.406 -2.59439 116.77 -2.49826 117.157 -2.49826C118.394 -2.49826 119.397 -3.47795 119.442 -4.70027H140.668L152.398 15.6099L147.367 24.3195L140.668 35.9201H117.208L112.177 27.2105L105.478 15.6099L113.297 2.06827L116.088 -2.76378ZM70.1364 -4.78496L81.8665 -25.0951H105.327L115.939 -6.71916C115.296 -6.31401 114.868 -5.59984 114.868 -4.78267C114.868 -3.9655 115.296 -3.25134 115.939 -2.84619L105.327 15.5298H81.8665L70.1364 -4.78038V-4.78496ZM70.1364 36.0071L81.8665 15.6969H105.327L113.146 29.2386L117.057 36.0094L105.327 56.3196H84.1012C84.0554 55.095 83.0525 54.1176 81.8161 54.1176C81.4291 54.1176 81.0651 54.2137 80.7468 54.3831L70.1364 36.0094V36.0071ZM105.327 97.1139H81.8665L70.1364 76.8037L80.7468 58.43C81.0651 58.5994 81.4291 58.6955 81.8161 58.6955C83.0525 58.6955 84.0554 57.7158 84.1012 56.4912H105.327L113.146 70.0329L117.057 76.8037L105.327 97.1139ZM140.665 76.7167H117.205L112.175 68.0071L105.475 56.4065L113.295 42.8649L117.205 36.0941H140.665L152.396 56.4043L140.665 76.7144V76.7167ZM176.007 56.3196H152.547L140.817 36.0094L145.847 27.2998L152.547 15.6992H176.007L186.619 34.0752C185.976 34.4803 185.548 35.1945 185.548 36.0117C185.548 36.8288 185.976 37.543 186.619 37.9482L182.706 44.7213L176.007 56.3219V56.3196ZM176.156 56.4043L181.186 47.6947L186.766 38.0306C187.084 38.1999 187.448 38.2961 187.835 38.2961C189.072 38.2961 190.075 37.3164 190.12 36.0918H211.346L223.076 56.402L218.045 65.1116L211.346 76.7121H187.886L176.156 56.402V56.4043ZM176.156 97.1986L187.886 76.8884H211.346L223.076 97.1986L218.045 105.908L212.465 115.572C212.147 115.403 211.783 115.307 211.396 115.307C210.16 115.307 209.157 116.286 209.111 117.511H187.886L176.156 97.2009V97.1986ZM187.886 117.683H209.111C209.157 118.907 210.16 119.885 211.396 119.885C211.783 119.885 212.147 119.789 212.465 119.619L223.076 137.993L211.346 158.303H187.886L176.156 137.993L187.886 117.683ZM141.934 160.327C142.577 159.921 143.006 159.207 143.006 158.39C143.006 157.573 142.577 156.859 141.934 156.454L152.547 138.078H176.007L187.737 158.388L182.706 167.097L176.007 178.698H152.547L141.934 160.322V160.327ZM152.547 178.872H176.007L187.737 199.182L182.706 207.892L176.007 219.492H152.547L140.817 199.182L152.547 178.872ZM105.475 219.582L117.205 199.271H140.665L152.396 219.582L147.365 228.291L140.665 239.892H119.44C119.394 238.667 118.391 237.687 117.155 237.687C116.768 237.687 116.404 237.784 116.086 237.953L105.475 219.579V219.582ZM140.665 280.686H117.205L105.475 260.376L116.086 242.002C116.404 242.172 116.768 242.268 117.155 242.268C118.391 242.268 119.394 241.288 119.44 240.066H140.665L152.396 260.376L140.665 280.686ZM176.007 260.289H152.547L140.817 239.979L145.847 231.269L152.547 219.669H176.007L187.737 239.979L182.693 248.714L176.007 260.289ZM211.346 280.686H187.886L176.156 260.376L181.2 251.641L187.886 240.066H211.346L223.076 260.376L211.346 280.686ZM246.685 260.289H223.225L211.494 239.979L216.525 231.269L223.225 219.669H244.45C244.496 220.893 245.499 221.871 246.735 221.871C247.122 221.871 247.486 221.774 247.804 221.605L258.415 239.979L253.37 248.714L246.685 260.289ZM282.024 280.686H258.563L246.833 260.376L251.878 251.641L258.563 240.066H282.024L293.754 260.376L282.024 280.686ZM317.362 260.289H293.902L282.172 239.979L287.203 231.269L293.902 219.669H317.362L322.393 228.378L329.092 239.979L321.273 253.52L317.362 260.291V260.289ZM352.704 280.686H329.244L317.514 260.376L329.244 240.066H350.469C350.515 241.29 351.52 242.268 352.754 242.268C353.141 242.268 353.505 242.172 353.823 242.002L364.434 260.376L352.704 280.686ZM388.043 260.289H364.583L353.97 241.915C354.613 241.51 355.041 240.796 355.041 239.979C355.041 239.162 354.613 238.447 353.97 238.042L355.774 234.918L364.583 219.669H388.043L399.773 239.979L391.953 253.52L388.043 260.291V260.289ZM423.382 280.686H399.921L388.191 260.376L399.921 240.066H423.382L435.112 260.376L423.382 280.686ZM458.819 -66.0634H435.16L423.379 -45.6663H399.818L388.015 -25.2256L387.99 -25.1821L399.796 -4.74147L399.821 -4.69798H423.48L434.141 -23.1587C434.459 -22.9893 434.823 -22.8931 435.21 -22.8931C436.446 -22.8931 437.449 -23.8728 437.495 -25.0951H458.819L470.625 -45.5358L470.65 -45.5793L458.844 -66.0199L458.819 -66.0634ZM423.382 -4.87194H399.921L388.191 -25.1821L399.921 -45.4923H423.382L433.994 -27.1163C433.351 -26.7112 432.923 -25.997 432.923 -25.1798C432.923 -24.3627 433.351 -23.6485 433.994 -23.2434L423.382 -4.86736V-4.87194ZM458.721 -25.2691H437.495C437.449 -26.4937 436.446 -27.4734 435.21 -27.4734C434.823 -27.4734 434.459 -27.3773 434.141 -27.2079L423.53 -45.5816L435.26 -65.8918H458.721L470.451 -45.5816L458.721 -25.2714V-25.2691ZM529.499 219.495H505.84L494.034 239.935L494.009 239.979L505.815 260.419L505.84 260.463H529.499L541.305 240.022L541.33 239.979L529.524 219.538L529.499 219.495ZM529.398 260.289H505.938L494.208 239.979L505.938 219.669H529.398L541.128 239.979L529.398 260.289ZM635.516 158.303H611.857L600.051 178.744L600.026 178.787L611.831 199.228L611.857 199.271H635.516L647.322 178.831L647.347 178.787L635.541 158.347L635.516 158.303ZM635.417 199.097H611.957L600.227 178.787L611.957 158.477H635.417L647.148 178.787L635.417 199.097ZM776.874 158.303H753.215L741.434 178.7H717.876L706.07 199.141L706.045 199.184L717.825 219.582L707.215 237.955C706.897 237.786 706.533 237.69 706.146 237.69C704.909 237.69 703.906 238.669 703.861 239.894H682.537L670.731 260.335L670.706 260.378L682.512 280.819L682.537 280.862H706.196L717.977 260.465H741.535L753.341 240.025L753.366 239.981L741.585 219.584L752.196 201.21C752.514 201.38 752.878 201.476 753.265 201.476C754.501 201.476 755.504 200.496 755.55 199.274H776.874L788.68 178.833L788.705 178.79L776.899 158.349L776.874 158.305V158.303ZM706.095 280.686H682.635L670.905 260.376L682.635 240.066H703.861C703.906 241.29 704.909 242.268 706.146 242.268C706.533 242.268 706.897 242.172 707.215 242.002L707.852 243.103L717.828 260.376L706.098 280.686H706.095ZM753.167 239.979L741.437 260.289H717.977L707.364 241.915C708.007 241.51 708.435 240.796 708.435 239.979C708.435 239.162 708.007 238.447 707.364 238.042L717.977 219.666H741.437L753.167 239.976V239.979ZM741.434 219.495H717.974L706.244 199.184L717.974 178.874H741.434L752.047 197.25C751.404 197.655 750.975 198.37 750.975 199.187C750.975 200.004 751.404 200.718 752.047 201.123L741.434 219.499V219.495ZM776.776 199.097H755.55C755.504 197.873 754.501 196.893 753.265 196.893C752.878 196.893 752.514 196.989 752.196 197.159L742.469 180.319L741.583 178.785L753.313 158.475H776.773L788.503 178.785L776.773 199.095L776.776 199.097ZM930.061 137.993L918.255 117.552L918.23 117.509H894.671L882.941 97.1986L894.696 76.8449L894.722 76.8014L882.941 56.4043L894.671 36.0941H918.23L930.035 15.6534L930.061 15.6099L918.255 -4.83074L918.23 -4.87423H894.671L882.916 -25.2279L882.891 -25.2714H859.232L847.451 -4.87423H826.226C826.18 -6.09884 825.177 -7.07853 823.941 -7.07853C823.554 -7.07853 823.19 -6.98239 822.871 -6.81301L812.261 -25.1867L824.016 -45.5404L824.041 -45.5839L812.261 -65.981L824.016 -86.3347L824.041 -86.3782L812.236 -106.819L812.211 -106.862H788.551L776.746 -86.4217L776.721 -86.3782L788.501 -65.981L776.746 -45.6274L776.721 -45.5839L788.501 -25.1867L776.771 -4.87652H753.311L741.556 -25.2302L741.53 -25.2737H717.972L707.359 -43.6497C708.003 -44.0548 708.431 -44.769 708.431 -45.5862C708.431 -46.4033 708.003 -47.1175 707.359 -47.5226L717.972 -65.8986H741.53L753.336 -86.3393L753.361 -86.3828L741.556 -106.823L741.53 -106.867H717.871L706.091 -86.4698H682.532L670.752 -66.0726H649.527C649.481 -67.2972 648.478 -68.2746 647.241 -68.2746C646.854 -68.2746 646.49 -68.1785 646.172 -68.0091L635.537 -86.4263L635.511 -86.4698H611.953L600.198 -106.823L600.172 -106.867H576.513L564.733 -86.4698H541.174L529.369 -66.0291L529.343 -65.9856L541.149 -45.545L541.174 -45.5015H564.733L576.488 -25.1478L576.513 -25.1043H597.837C597.883 -23.8797 598.886 -22.9023 600.122 -22.9023C600.509 -22.9023 600.873 -22.9984 601.191 -23.1678L611.827 -4.75063L611.852 -4.70714H635.511L647.292 -25.1043H670.752L682.507 -4.75063L682.532 -4.70714H706.091L717.821 15.6031L706.066 35.9567L706.04 36.0002L717.846 56.4409L717.871 56.4844H741.53L752.191 38.026C752.509 38.1954 752.874 38.2915 753.26 38.2915C754.497 38.2915 755.5 37.3118 755.546 36.0872H776.771L788.526 56.4409L788.551 56.4844H812.211L823.991 36.0872H847.451L859.181 56.3974L847.426 76.7511L847.401 76.7945L858.062 95.2552C857.418 95.6604 856.99 96.3746 856.99 97.1917C856.99 98.0089 857.418 98.723 858.062 99.1282L847.424 117.545L847.398 117.589L859.179 137.986L848.568 156.36C848.25 156.19 847.886 156.094 847.499 156.094C846.263 156.094 845.26 157.074 845.214 158.299H823.89L812.085 178.739L812.059 178.783L823.84 199.18L813.23 217.554C812.911 217.384 812.547 217.288 812.16 217.288C810.896 217.288 809.871 218.313 809.871 219.577C809.871 220.841 810.896 221.866 812.16 221.866C812.547 221.866 812.911 221.77 813.23 221.6L823.84 239.974L812.085 260.328L812.059 260.371L823.865 280.812L823.89 280.855H847.55L859.33 260.458H882.889L894.669 240.061H918.227L930.033 219.62L930.058 219.577L918.278 199.18L930.033 178.826L930.058 178.783L918.278 158.386L930.033 138.032L930.058 137.988L930.061 137.993ZM918.131 -4.70027L929.861 15.6099L918.131 35.9201H894.671L886.852 22.3785L884.061 17.5441C884.704 17.139 885.132 16.4248 885.132 15.6076C885.132 14.7905 884.704 14.0763 884.061 13.6712L890.763 2.06598L894.673 -4.70485H918.134L918.131 -4.70027ZM859.332 -25.0974H882.792L894.522 -4.78725L886.703 8.75439L883.912 13.5865C883.594 13.4171 883.23 13.3209 882.843 13.3209C881.606 13.3209 880.603 14.3006 880.558 15.5229H859.332L851.513 1.98129L847.602 -4.78954L859.332 -25.0997V-25.0974ZM776.924 -86.3736L788.654 -106.684H812.114L823.844 -86.3736L812.114 -66.0634H788.654L776.924 -86.3736ZM776.924 -45.5793L788.654 -65.8895H812.114L823.844 -45.5793L812.114 -25.2691H788.654L776.924 -45.5793ZM788.654 -25.0974H812.114L822.727 -6.72145C822.084 -6.3163 821.656 -5.60213 821.656 -4.78496C821.656 -3.96779 822.084 -3.25362 822.727 -2.84847L816.025 8.75668L812.114 15.5275H788.654L780.835 1.98587L776.924 -4.78496L788.654 -25.0951V-25.0974ZM717.974 -106.686H741.434L753.164 -86.3759L741.434 -66.0657H717.974L706.244 -86.3759L717.974 -106.686ZM682.635 -86.2889H706.095L707.868 -83.2217L717.825 -65.9787L707.215 -47.605C706.897 -47.7744 706.533 -47.8706 706.146 -47.8706C704.909 -47.8706 703.906 -46.8909 703.861 -45.6663H682.635L671.791 -64.4428L670.905 -65.9765L682.635 -86.2866V-86.2889ZM635.417 -86.2889L646.03 -67.9129C645.387 -67.5078 644.959 -66.7936 644.959 -65.9765C644.959 -65.1593 645.387 -64.4451 646.03 -64.04L636.304 -47.1976L635.417 -45.664H611.957L601.113 -64.4405L600.227 -65.9742L602 -69.0414L611.957 -86.2844H635.417V-86.2889ZM576.618 -106.686H600.079L611.809 -86.3759L600.079 -66.0634H576.618L568.799 -79.6051L564.888 -86.3759L576.618 -106.686ZM541.28 -45.6663L529.55 -65.9765L541.28 -86.2866H564.74L572.559 -72.745L576.47 -65.9742L568.65 -52.4325L564.74 -45.6617H541.28V-45.6663ZM600.127 -27.4711C598.89 -27.4711 597.887 -26.4914 597.842 -25.2668H576.616L564.886 -45.577L572.705 -59.1187L576.616 -65.8895H600.076L611.806 -45.5793L601.196 -27.2056C600.878 -27.375 600.514 -27.4711 600.127 -27.4711ZM635.417 -4.87194H611.957L601.345 -23.2479C601.988 -23.6531 602.416 -24.3672 602.416 -25.1844C602.416 -26.0016 601.988 -26.7158 601.345 -27.1209L601.997 -28.2517L611.955 -45.4946H635.415L637.187 -42.4274L647.145 -25.1844L635.415 -4.87423L635.417 -4.87194ZM647.296 -25.2691L635.566 -45.5793L646.177 -63.953C646.495 -63.7836 646.859 -63.6875 647.246 -63.6875C648.482 -63.6875 649.485 -64.6672 649.531 -65.8895H670.756L682.486 -45.5793L670.756 -25.2691H647.296ZM682.635 -4.87194L670.905 -25.1821L672.677 -28.2494L682.635 -45.4923H703.861C703.906 -44.2677 704.909 -43.2903 706.146 -43.2903C706.533 -43.2903 706.897 -43.3864 707.215 -43.5558L717.825 -25.1821L706.981 -6.40557L706.095 -4.87194H682.635ZM706.244 -4.78496L717.974 -25.0951H741.434L753.164 -4.78496L741.434 15.5252H717.974L706.244 -4.78496ZM741.434 56.3196H717.974L706.244 36.0094L717.974 15.6992H741.434L752.047 34.0752C751.404 34.4803 750.975 35.1945 750.975 36.0117C750.975 36.8288 751.404 37.543 752.047 37.9482L741.434 56.3241V56.3196ZM755.55 35.9224C755.504 34.6978 754.501 33.7204 753.265 33.7204C752.878 33.7204 752.514 33.8165 752.196 33.9859L742.469 17.1458L741.583 15.6122L743.346 12.5587L753.313 -4.70027H776.773L784.592 8.84137L788.503 15.6122L780.684 29.1539L776.773 35.9247H755.548L755.55 35.9224ZM812.114 56.3196H788.654L776.924 36.0094L784.744 22.4677L788.654 15.6969H812.114L819.934 29.2386L823.844 36.0094L812.114 56.3196ZM823.993 35.9224L816.174 22.3807L812.263 15.6099L820.083 2.06827L822.874 -2.76378C823.192 -2.59439 823.556 -2.49826 823.943 -2.49826C825.179 -2.49826 826.182 -3.47795 826.228 -4.70027H847.453L855.273 8.84137L859.183 15.6122L851.364 29.1539L847.453 35.9247H823.993V35.9224ZM847.602 36.0071L855.422 22.4654L859.332 15.6946H880.558C880.603 16.9192 881.606 17.8989 882.843 17.8989C883.23 17.8989 883.594 17.8028 883.912 17.6334L890.614 29.2363L894.525 36.0071L882.795 56.3173H859.335L847.605 36.0071H847.602ZM847.602 76.8014L859.332 56.4912H882.792L894.522 76.8014L882.792 97.1116H861.567C861.521 95.887 860.518 94.9096 859.282 94.9096C858.895 94.9096 858.531 95.0057 858.213 95.1751L847.602 76.8014ZM847.602 117.596L858.213 99.2221C858.531 99.3914 858.895 99.4876 859.282 99.4876C860.518 99.4876 861.521 98.5079 861.567 97.2856H882.792L894.522 117.596L886.703 131.137L882.792 137.908H859.332L847.602 117.598V117.596ZM848.72 156.454L859.332 138.078H882.792L890.612 151.619L894.522 158.39L886.703 171.932L883.912 176.764C883.594 176.594 883.23 176.498 882.843 176.498C881.606 176.498 880.603 177.478 880.558 178.703H859.332L851.513 165.161L848.722 160.327C849.365 159.921 849.793 159.207 849.793 158.39C849.793 157.573 849.365 156.859 848.722 156.454H848.72ZM890.612 192.414L894.522 199.184L886.703 212.726L882.792 219.497H859.332L851.513 205.955L847.602 199.184L855.422 185.643L859.332 178.872H880.558C880.603 180.097 881.606 181.074 882.843 181.074C883.23 181.074 883.594 180.978 883.912 180.808L890.614 192.411L890.612 192.414ZM812.263 178.787L823.993 158.477H845.219C845.264 159.702 846.267 160.679 847.504 160.679C847.891 160.679 848.255 160.583 848.573 160.414L855.275 172.016L859.186 178.787L851.366 192.329L847.456 199.1H823.996L812.266 178.79L812.263 178.787ZM813.381 221.518C814.024 221.113 814.452 220.399 814.452 219.582C814.452 218.764 814.024 218.05 813.381 217.645L823.993 199.269H847.453L855.273 212.811L859.183 219.582L851.364 233.123L847.453 239.894H823.993L813.381 221.518ZM847.453 280.686H823.993L812.263 260.376L823.993 240.066H847.453L855.273 253.607L859.183 260.378L847.453 280.688V280.686ZM882.792 260.289H859.332L851.513 246.747L847.602 239.976L855.422 226.435L859.332 219.664H882.792L890.612 233.206L894.522 239.976L882.792 260.287V260.289ZM929.861 219.582L918.131 239.892H894.671L886.852 226.35L882.941 219.579L890.76 206.038L894.671 199.267H918.131L929.861 219.577V219.582ZM929.861 178.787L918.131 199.097H894.671L886.852 185.556L884.061 180.721C884.704 180.316 885.132 179.602 885.132 178.785C885.132 177.968 884.704 177.254 884.061 176.848L890.763 165.243L894.673 158.473H918.134L929.864 178.783L929.861 178.787ZM918.131 158.303H894.671L886.852 144.761L882.941 137.991L890.76 124.449L894.671 117.678H918.131L929.861 137.988L918.131 158.299V158.303Z" fill="#8957E5"/>
</g>
<defs>
<clipPath id="clip0_2_2">
<rect width="1000" height="200" fill="white"/>
</clipPath>
</defs>
</svg>
