<svg width="3025" height="781" viewBox="0 0 3025 781" fill="none" xmlns="http://www.w3.org/2000/svg">
<g clip-path="url(#clip0_17_716)">
<g opacity="0.5">
<g opacity="0.3">
<path d="M2152.82 46.36L2120.38 27.63L2088.03 46.31V83.86L2120.38 102.54L2152.82 83.81V46.36Z" fill="#8B8B8B"/>
</g>
<path d="M2627.35 425.5V386.55L2661.08 367.07L2694.81 386.54V425.49L2661.08 444.96L2627.35 425.49V425.5ZM2629.94 388.05V424.01L2661.08 441.99L2692.22 424.01V388.05L2661.08 370.07L2629.94 388.05Z" fill="#8B8B8B"/>
<path d="M2522.41 243.44V204.49L2556.14 185.02L2589.79 204.45V243.5L2556.15 262.92L2522.42 243.44H2522.41ZM2524.99 205.99V241.95L2556.13 259.93L2587.18 242V205.94L2556.12 188.01L2524.98 205.99H2524.99Z" fill="#8B8B8B"/>
<path d="M2417.46 182.76V143.82L2451.19 124.34L2484.92 143.81V182.76L2451.19 202.23L2417.46 182.75V182.76ZM2420.05 145.31V181.27L2451.19 199.25L2482.33 181.27V145.31L2451.19 127.33L2420.05 145.31Z" fill="#8B8B8B"/>
<path d="M2487.51 304.18V265.13L2521.15 245.71L2554.88 265.19V304.13L2521.15 323.61L2487.51 304.19V304.18ZM2490.1 266.63V302.69L2521.15 320.62L2552.29 302.64V266.68L2521.15 248.7L2490.1 266.63Z" fill="#8B8B8B"/>
<path d="M2522.41 364.81V325.87L2556.14 306.39L2589.78 325.81V364.86L2556.14 384.28L2522.41 364.8V364.81ZM2524.99 327.37V363.32L2556.14 381.3L2587.19 363.37V327.31L2556.14 309.38L2525 327.36L2524.99 327.37Z" fill="#8B8B8B"/>
<path d="M2277.54 304.13V265.18L2311.27 245.71L2344.92 265.14V304.19L2311.28 323.61L2277.55 304.14L2277.54 304.13ZM2280.13 266.68V302.64L2311.27 320.62L2342.33 302.69V266.63L2311.27 248.7L2280.13 266.68Z" fill="#8B8B8B"/>
<path d="M2382.48 486.19V447.24L2416.21 427.77L2449.86 447.2V486.25L2416.22 505.67L2382.49 486.2L2382.48 486.19ZM2385.07 448.73V484.69L2416.21 502.67L2447.27 484.74V448.68L2416.21 430.75L2385.07 448.73Z" fill="#8B8B8B"/>
<path d="M2592.45 243.49V204.44L2626.1 185.01L2659.83 204.48V243.43L2626.1 262.9L2592.46 243.48L2592.45 243.49ZM2595.04 205.94V242L2626.1 259.93L2657.24 241.95V205.99L2626.1 188.01L2595.04 205.94Z" fill="#8B8B8B"/>
<path d="M2312.52 122.07V83.12L2346.25 63.65L2379.89 83.07V122.12L2346.25 141.54L2312.52 122.07ZM2315.11 84.62V120.58L2346.25 138.56L2377.31 120.63V84.57L2346.25 66.64L2315.11 84.62Z" fill="#8B8B8B"/>
<path d="M1957.99 215.23V176.28L1991.72 156.81L2025.36 176.23V215.28L1991.72 234.7L1957.99 215.23ZM1960.57 177.78V213.74L1991.71 231.72L2022.77 213.79V177.73L1991.71 159.8L1960.57 177.78Z" fill="#8B8B8B"/>
<path d="M1762.86 244.22V205.27L1796.59 185.8L1830.23 205.22V244.27L1796.59 263.69L1762.86 244.22ZM1765.45 206.76V242.72L1796.59 260.7L1827.65 242.77V206.71L1796.59 188.78L1765.45 206.76Z" fill="#8B8B8B"/>
<path d="M1986.45 535.09V496.14L2020.18 476.67L2053.82 496.09V535.14L2020.18 554.56L1986.45 535.09ZM1989.04 497.64V533.6L2020.18 551.58L2051.24 533.65V497.59L2020.18 479.66L1989.04 497.64Z" fill="#8B8B8B"/>
<path d="M2592.45 122.12V83.07L2626.09 63.65L2659.82 83.12V122.07L2626.09 141.54L2592.44 122.11L2592.45 122.12ZM2595.04 84.57V120.63L2626.1 138.56L2657.24 120.58V84.62L2626.1 66.64L2595.04 84.57Z" fill="#8B8B8B"/>
<path d="M2382.57 243.49V204.44L2416.21 185.02L2449.94 204.5V243.44L2416.21 262.91L2382.57 243.49ZM2385.16 205.94V242L2416.22 259.93L2447.36 241.95V206L2416.22 188.02L2385.17 205.95L2385.16 205.94Z" fill="#8B8B8B"/>
<path d="M2347.59 304.18V265.13L2381.23 245.71L2414.87 265.13V304.18L2381.23 323.6L2347.59 304.18ZM2350.18 266.63V302.69L2381.24 320.62L2412.3 302.69V266.63L2381.24 248.7L2350.18 266.63Z" fill="#8B8B8B"/>
<path d="M2417.55 304.18V265.13L2451.2 245.7L2484.84 265.12V304.17L2451.2 323.59L2417.56 304.17L2417.55 304.18ZM2420.14 266.63V302.69L2451.2 320.62L2482.26 302.69V266.63L2451.21 248.7L2420.15 266.63H2420.14Z" fill="#8B8B8B"/>
<path d="M2312.52 243.44V204.49L2346.25 185.02L2379.89 204.44V243.49L2346.25 262.91L2312.52 243.44ZM2315.11 205.99V241.95L2346.25 259.93L2377.31 242V205.94L2346.25 188.01L2315.11 205.99Z" fill="#8B8B8B"/>
<path d="M2452.53 486.24V447.19L2486.17 427.77L2519.81 447.19V486.24L2486.17 505.66L2452.53 486.24ZM2455.12 448.69V484.75L2486.18 502.68L2517.24 484.75V448.69L2486.18 430.76L2455.12 448.69Z" fill="#8B8B8B"/>
<path d="M2417.46 425.5V386.55L2451.19 367.08L2484.83 386.5V425.55L2451.19 444.97L2417.46 425.5ZM2420.05 388.05V424.01L2451.19 441.99L2482.25 424.06V388L2451.19 370.07L2420.05 388.05Z" fill="#8B8B8B"/>
<path d="M2139.74 530.18V491.23L2173.47 471.76L2207.12 491.19V530.24L2173.48 549.66L2139.75 530.19L2139.74 530.18ZM2142.33 492.73V528.69L2173.47 546.67L2204.53 528.74V492.68L2173.47 474.75L2142.33 492.73Z" fill="#8B8B8B"/>
<path d="M2209.79 530.23V491.18L2243.43 471.76L2277.07 491.18V530.23L2243.43 549.65L2209.79 530.23ZM2212.38 492.68V528.74L2243.44 546.67L2274.5 528.74V492.68L2243.44 474.75L2212.38 492.68Z" fill="#8B8B8B"/>
<path d="M2174.72 469.49V430.54L2208.45 411.07L2242.09 430.49V469.54L2208.45 488.96L2174.72 469.49ZM2177.31 432.04V468L2208.45 485.98L2239.51 468.05V431.99L2208.45 414.06L2177.31 432.04Z" fill="#8B8B8B"/>
<path d="M2557.39 182.76V143.82L2591.12 124.35L2624.85 143.82V182.76L2591.12 202.23L2557.39 182.76ZM2559.97 145.31V181.27L2591.11 199.25L2622.25 181.27V145.32L2591.11 127.34L2559.97 145.32V145.31Z" fill="#8B8B8B"/>
<path d="M2592.45 364.87V325.82L2626.09 306.4L2659.82 325.87V364.82L2626.09 384.3L2592.45 364.88V364.87ZM2595.04 327.31V363.37L2626.09 381.3L2657.24 363.32V327.36L2626.1 309.38L2595.04 327.31Z" fill="#8B8B8B"/>
<path d="M2522.49 486.24V447.19L2556.14 427.76L2589.87 447.23V486.18L2556.14 505.65L2522.5 486.23L2522.49 486.24ZM2525.08 448.69V484.75L2556.14 502.68L2587.28 484.7V448.74L2556.14 430.76L2525.08 448.69Z" fill="#8B8B8B"/>
<path d="M2522.41 122.07V83.12L2556.14 63.65L2589.78 83.07V122.12L2556.13 141.55L2522.4 122.08L2522.41 122.07ZM2524.99 84.62V120.58L2556.13 138.56L2587.19 120.63V84.57L2556.13 66.64L2524.99 84.62Z" fill="#8B8B8B"/>
<path d="M2382.57 122.12V83.07L2416.21 63.65L2449.94 83.12V122.07L2416.21 141.55L2382.57 122.13V122.12ZM2385.16 84.57V120.63L2416.21 138.56L2447.35 120.58V84.62L2416.21 66.64L2385.15 84.57H2385.16Z" fill="#8B8B8B"/>
<path d="M1561.1 164.26V125.31L1594.83 105.84L1628.48 125.27V164.32L1594.84 183.74L1561.11 164.27L1561.1 164.26ZM1563.69 126.81V162.77L1594.83 180.75L1625.89 162.82V126.76L1594.83 108.83L1563.69 126.81Z" fill="#8B8B8B"/>
<path d="M2487.51 425.55V386.5L2521.15 367.08L2554.88 386.56V425.5L2521.15 444.97L2487.51 425.55ZM2490.1 388V424.06L2521.16 441.99L2552.3 424.01V388.05L2521.16 370.07L2490.11 388H2490.1Z" fill="#8B8B8B"/>
<path d="M2746.33 142.01V103.06L2780.06 83.59L2813.71 103.02V142.07L2780.07 161.49L2746.34 142.02L2746.33 142.01ZM2748.92 104.55V140.51L2780.06 158.49L2811.12 140.56V104.5L2780.06 86.57L2748.92 104.55Z" fill="#8B8B8B"/>
<path d="M2816.38 142.06V103.01L2850.02 83.59L2883.66 103.01V142.06L2850.02 161.48L2816.38 142.06ZM2818.97 104.5V140.56L2850.03 158.49L2881.09 140.56V104.5L2850.03 86.57L2818.97 104.5Z" fill="#8B8B8B"/>
<path d="M2781.31 81.32V42.37L2815.04 22.9L2848.68 42.32V81.37L2815.04 100.79L2781.31 81.32ZM2783.9 43.86V79.82L2815.04 97.8L2846.1 79.87V43.81L2815.04 25.88L2783.9 43.86Z" fill="#8B8B8B"/>
<path d="M2851.36 81.37V42.32L2885 22.9L2918.73 42.38V81.32L2885 100.79L2851.36 81.37ZM2853.95 43.81V79.87L2885.01 97.8L2916.15 79.82V43.86L2885.01 25.88L2853.96 43.81H2853.95Z" fill="#8B8B8B"/>
<g opacity="0.1">
<path d="M1852.32 196.99V222.39L1830.32 235.1L1808.32 222.39V196.99L1830.32 184.28L1852.32 196.99Z" fill="#8B8B8B"/>
<path d="M1879.56 98.93V73.45L1901.51 60.78L1923.51 73.49V98.89L1901.51 111.6L1879.56 98.93Z" fill="#8B8B8B"/>
<path d="M1994.7 57.73L1972.7 70.43L1950.69 57.73V32.32L1972.7 19.62L1994.7 32.32V57.73Z" fill="#8B8B8B"/>
<path d="M1947.18 140.1L1925.24 152.76L1903.24 140.06V114.66L1925.24 101.95L1947.18 114.62V140.1Z" fill="#8B8B8B"/>
<path d="M1923.51 181.23L1901.51 193.93L1879.56 181.26V155.79L1901.51 143.12L1923.51 155.82V181.23Z" fill="#8B8B8B"/>
<path d="M2045.67 140.1V114.62L2067.62 101.95L2089.62 114.65V140.06L2067.61 152.76L2045.67 140.1Z" fill="#8B8B8B"/>
<path d="M1974.48 263.6V238.12L1996.43 225.45L2018.43 238.15V263.56L1996.43 276.27L1974.48 263.6Z" fill="#8B8B8B"/>
<path d="M1876 73.45V98.93L1854.05 111.6L1832.05 98.89V73.49L1854.05 60.78L1876 73.45Z" fill="#8B8B8B"/>
<path d="M2486.55 111.88V86.41L2508.49 73.74L2530.5 86.44V111.85L2508.49 124.55L2486.55 111.88Z" fill="#8B8B8B"/>
<path d="M2525.23 611.85V586.37L2547.18 573.7L2569.18 586.41V611.81L2547.18 624.52L2525.23 611.85Z" fill="#8B8B8B"/>
<path d="M2018.37 98.93L1996.43 111.6L1974.42 98.89V73.49L1996.43 60.78L2018.37 73.45V98.93Z" fill="#8B8B8B"/>
<path d="M1998.21 114.62L2020.16 101.95L2042.1 114.62V140.1L2020.16 152.76L1998.21 140.1V114.62Z" fill="#8B8B8B"/>
<path d="M2867.11 685.13L2845.1 697.84L2823.1 685.13V659.73L2845.1 647.02L2867.11 659.73V685.13Z" fill="#8B8B8B"/>
<path d="M2890.78 726.33L2868.83 739L2846.83 726.3V700.89L2868.84 688.19L2890.78 700.86V726.33Z" fill="#8B8B8B"/>
<path d="M2870.62 742.03L2892.56 729.36L2914.51 742.03V767.5L2892.56 780.17L2870.62 767.5V742.03Z" fill="#8B8B8B"/>
<path d="M1950.75 114.62L1972.7 101.95L1994.64 114.62V140.1L1972.7 152.76L1950.75 140.1V114.62Z" fill="#8B8B8B"/>
<path d="M2065.89 98.89L2043.89 111.6L2021.94 98.93V73.45L2043.89 60.78L2065.89 73.49V98.89Z" fill="#8B8B8B"/>
<path d="M1927.02 238.12L1948.97 225.45L1970.91 238.12V263.6L1948.97 276.27L1927.02 263.6V238.12Z" fill="#8B8B8B"/>
<path d="M1994.7 222.39L1972.7 235.1L1950.75 222.43V196.95L1972.7 184.28L1994.7 196.99V222.39Z" fill="#8B8B8B"/>
<path d="M2118.44 505.12V479.65L2140.39 466.98L2162.39 479.68V505.09L2140.39 517.79L2118.44 505.12Z" fill="#8B8B8B"/>
<path d="M2070.98 479.65L2092.93 466.98L2114.87 479.65V505.12L2092.93 517.79L2070.98 505.12V479.65Z" fill="#8B8B8B"/>
<path d="M2138.66 463.92L2116.66 476.63L2094.71 463.96V438.48L2116.66 425.81L2138.66 438.52V463.92Z" fill="#8B8B8B"/>
<path d="M1855.78 32.32L1877.78 19.62L1899.78 32.32V57.73L1877.78 70.43L1855.78 57.73V32.32Z" fill="#8B8B8B"/>
<path d="M1832.05 155.82L1854.05 143.12L1876 155.79V181.26L1854.05 193.93L1832.05 181.23V155.82Z" fill="#8B8B8B"/>
<path d="M1923.45 263.6L1901.51 276.27L1879.51 263.56V238.15L1901.51 225.45L1923.45 238.12V263.6Z" fill="#8B8B8B"/>
<path d="M2349.49 380.08V354.61L2371.43 341.94L2393.43 354.64V380.05L2371.43 392.75L2349.49 380.08Z" fill="#8B8B8B"/>
<path d="M1947.18 222.43L1925.24 235.1L1903.24 222.39V196.99L1925.24 184.28L1947.18 196.95V222.43Z" fill="#8B8B8B"/>
<path d="M1671.8 754.92L1649.79 767.62L1627.85 754.95V729.48L1649.79 716.81L1671.8 729.51V754.92Z" fill="#8B8B8B"/>
<path d="M1624.28 754.95L1602.34 767.62L1580.33 754.92V729.51L1602.34 716.81L1624.28 729.48V754.95Z" fill="#8B8B8B"/>
</g>
<g opacity="0.5">
<path d="M1300 307.74V208.34L1386.08 158.64L1471.94 208.21V307.87L1386.08 357.44L1300 307.74ZM1302.59 209.83V306.24L1386.09 354.45L1469.36 306.37V209.7L1386.08 161.62L1302.59 209.82V209.83Z" fill="#8B8B8B"/>
<path d="M1574.55 149.22V49.57L1660.4 0L1746.49 49.71V149.1L1660.4 198.8L1574.54 149.23L1574.55 149.22ZM1577.14 51.06V147.73L1660.41 195.81L1743.91 147.6V51.2L1660.41 2.99L1577.15 51.06H1577.14Z" fill="#8B8B8B"/>
<path d="M1483.11 307.87V208.21L1568.97 158.64L1654.83 208.21V307.87L1568.97 357.44L1483.11 307.87ZM1485.7 209.71V306.38L1568.97 354.46L1652.24 306.38V209.71L1568.97 161.63L1485.7 209.71Z" fill="#8B8B8B"/>
<path d="M1584.68 609.33V509.93L1670.76 460.23L1756.62 509.8V609.46L1670.76 659.03L1584.68 609.33ZM1587.27 511.42V607.83L1670.77 656.04L1754.04 607.96V511.29L1670.76 463.21L1587.27 511.41V511.42Z" fill="#8B8B8B"/>
<path d="M2227.91 258.97V159.31L2313.77 109.74L2399.63 159.31V258.97L2313.77 308.54L2227.91 258.97ZM2230.49 160.8V257.47L2313.76 305.55L2397.03 257.47V160.8L2313.76 112.73L2230.49 160.8Z" fill="#8B8B8B"/>
<path d="M2410.79 258.97V159.31L2496.65 109.74L2582.73 159.44V258.84L2496.65 308.54L2410.79 258.97ZM2413.38 160.8V257.47L2496.65 305.55L2580.15 257.34V160.93L2496.66 112.73L2413.38 160.81V160.8Z" fill="#8B8B8B"/>
</g>
<path d="M1327.35 365.5V326.55L1361.08 307.07L1394.81 326.54V365.49L1361.08 384.96L1327.35 365.49V365.5ZM1329.94 328.05V364.01L1361.08 381.99L1392.22 364.01V328.05L1361.08 310.07L1329.94 328.05Z" fill="#8B8B8B"/>
<path d="M1222.41 183.44V144.49L1256.14 125.02L1289.79 144.45V183.5L1256.15 202.92L1222.42 183.44H1222.41ZM1224.99 145.99V181.95L1256.13 199.93L1287.18 182V145.94L1256.12 128.01L1224.98 145.99H1224.99Z" fill="#8B8B8B"/>
<path d="M1117.46 122.76V83.82L1151.19 64.34L1184.92 83.81V122.76L1151.19 142.23L1117.46 122.75V122.76ZM1120.05 85.31V121.27L1151.19 139.25L1182.33 121.27V85.31L1151.19 67.33L1120.05 85.31Z" fill="#8B8B8B"/>
<path d="M1187.51 244.18V205.13L1221.15 185.71L1254.88 205.19V244.13L1221.15 263.61L1187.51 244.19V244.18ZM1190.1 206.63V242.69L1221.15 260.62L1252.29 242.64V206.68L1221.15 188.7L1190.1 206.63Z" fill="#8B8B8B"/>
<path d="M1222.41 304.81V265.87L1256.14 246.39L1289.78 265.81V304.86L1256.14 324.28L1222.41 304.8V304.81ZM1224.99 267.37V303.32L1256.14 321.3L1287.19 303.37V267.31L1256.14 249.38L1225 267.36L1224.99 267.37Z" fill="#8B8B8B"/>
<path d="M977.54 244.13V205.18L1011.27 185.71L1044.92 205.14V244.19L1011.28 263.61L977.55 244.14L977.54 244.13ZM980.13 206.68V242.64L1011.27 260.62L1042.33 242.69V206.63L1011.27 188.7L980.13 206.68Z" fill="#8B8B8B"/>
<path d="M1082.48 426.19V387.24L1116.21 367.77L1149.86 387.2V426.25L1116.22 445.67L1082.49 426.2L1082.48 426.19ZM1085.07 388.73V424.69L1116.21 442.67L1147.27 424.74V388.68L1116.21 370.75L1085.07 388.73Z" fill="#8B8B8B"/>
<path d="M1292.45 183.49V144.44L1326.1 125.01L1359.83 144.48V183.43L1326.1 202.9L1292.46 183.48L1292.45 183.49ZM1295.04 145.94V182L1326.1 199.93L1357.24 181.95V145.99L1326.1 128.01L1295.04 145.94Z" fill="#8B8B8B"/>
<path d="M1012.52 62.07V23.12L1046.25 3.65002L1079.89 23.07V62.12L1046.25 81.54L1012.52 62.07ZM1015.11 24.62V60.58L1046.25 78.56L1077.31 60.63V24.57L1046.25 6.64002L1015.11 24.62Z" fill="#8B8B8B"/>
<path d="M657.99 155.23V116.28L691.72 96.8101L725.36 116.23V155.28L691.72 174.7L657.99 155.23ZM660.57 117.78V153.74L691.71 171.72L722.77 153.79V117.73L691.71 99.8001L660.57 117.78Z" fill="#8B8B8B"/>
<path d="M462.86 184.22V145.27L496.59 125.8L530.23 145.22V184.27L496.59 203.69L462.86 184.22ZM465.45 146.76V182.72L496.59 200.7L527.65 182.77V146.71L496.59 128.78L465.45 146.76Z" fill="#8B8B8B"/>
<path d="M686.45 475.09V436.14L720.18 416.67L753.82 436.09V475.14L720.18 494.56L686.45 475.09ZM689.04 437.64V473.6L720.18 491.58L751.24 473.65V437.59L720.18 419.66L689.04 437.64Z" fill="#8B8B8B"/>
<path d="M1292.45 62.12V23.07L1326.09 3.65002L1359.82 23.12V62.07L1326.09 81.54L1292.44 62.11L1292.45 62.12ZM1295.04 24.57V60.63L1326.1 78.56L1357.24 60.58V24.62L1326.1 6.64002L1295.04 24.57Z" fill="#8B8B8B"/>
<path d="M1082.57 183.49V144.44L1116.21 125.02L1149.94 144.5V183.44L1116.21 202.91L1082.57 183.49ZM1085.16 145.94V182L1116.22 199.93L1147.36 181.95V146L1116.22 128.02L1085.17 145.95L1085.16 145.94Z" fill="#8B8B8B"/>
<path d="M1047.59 244.18V205.13L1081.23 185.71L1114.87 205.13V244.18L1081.23 263.6L1047.59 244.18ZM1050.18 206.63V242.69L1081.24 260.62L1112.3 242.69V206.63L1081.24 188.7L1050.18 206.63Z" fill="#8B8B8B"/>
<path d="M1117.55 244.18V205.13L1151.2 185.7L1184.84 205.12V244.17L1151.2 263.59L1117.56 244.17L1117.55 244.18ZM1120.14 206.63V242.69L1151.2 260.62L1182.26 242.69V206.63L1151.21 188.7L1120.15 206.63H1120.14Z" fill="#8B8B8B"/>
<path d="M1012.52 183.44V144.49L1046.25 125.02L1079.89 144.44V183.49L1046.25 202.91L1012.52 183.44ZM1015.11 145.99V181.95L1046.25 199.93L1077.31 182V145.94L1046.25 128.01L1015.11 145.99Z" fill="#8B8B8B"/>
<path d="M1152.53 426.24V387.19L1186.17 367.77L1219.81 387.19V426.24L1186.17 445.66L1152.53 426.24ZM1155.12 388.69V424.75L1186.18 442.68L1217.24 424.75V388.69L1186.18 370.76L1155.12 388.69Z" fill="#8B8B8B"/>
<path d="M1117.46 365.5V326.55L1151.19 307.08L1184.83 326.5V365.55L1151.19 384.97L1117.46 365.5ZM1120.05 328.05V364.01L1151.19 381.99L1182.25 364.06V328L1151.19 310.07L1120.05 328.05Z" fill="#8B8B8B"/>
<path d="M839.74 470.18V431.23L873.47 411.76L907.12 431.19V470.24L873.48 489.66L839.75 470.19L839.74 470.18ZM842.33 432.73V468.69L873.47 486.67L904.53 468.74V432.68L873.47 414.75L842.33 432.73Z" fill="#8B8B8B"/>
<path d="M909.79 470.23V431.18L943.43 411.76L977.07 431.18V470.23L943.43 489.65L909.79 470.23ZM912.38 432.68V468.74L943.44 486.67L974.5 468.74V432.68L943.44 414.75L912.38 432.68Z" fill="#8B8B8B"/>
<path d="M874.72 409.49V370.54L908.45 351.07L942.09 370.49V409.54L908.45 428.96L874.72 409.49ZM877.31 372.04V408L908.45 425.98L939.51 408.05V371.99L908.45 354.06L877.31 372.04Z" fill="#8B8B8B"/>
<path d="M1257.39 122.76V83.82L1291.12 64.35L1324.85 83.82V122.76L1291.12 142.23L1257.39 122.76ZM1259.97 85.31V121.27L1291.11 139.25L1322.25 121.27V85.32L1291.11 67.34L1259.97 85.32V85.31Z" fill="#8B8B8B"/>
<path d="M1292.45 304.87V265.82L1326.09 246.4L1359.82 265.87V304.82L1326.09 324.3L1292.45 304.88V304.87ZM1295.04 267.31V303.37L1326.09 321.3L1357.24 303.32V267.36L1326.1 249.38L1295.04 267.31Z" fill="#8B8B8B"/>
<path d="M1222.49 426.24V387.19L1256.14 367.76L1289.87 387.23V426.18L1256.14 445.65L1222.5 426.23L1222.49 426.24ZM1225.08 388.69V424.75L1256.14 442.68L1287.28 424.7V388.74L1256.14 370.76L1225.08 388.69Z" fill="#8B8B8B"/>
<path d="M1222.41 62.07V23.12L1256.14 3.65002L1289.78 23.07V62.12L1256.13 81.55L1222.4 62.08L1222.41 62.07ZM1224.99 24.62V60.58L1256.13 78.56L1287.19 60.63V24.57L1256.13 6.64002L1224.99 24.62Z" fill="#8B8B8B"/>
<path d="M1082.57 62.12V23.07L1116.21 3.65002L1149.94 23.12V62.07L1116.21 81.55L1082.57 62.13V62.12ZM1085.16 24.57V60.63L1116.21 78.56L1147.35 60.58V24.62L1116.21 6.64002L1085.15 24.57H1085.16Z" fill="#8B8B8B"/>
<path d="M261.1 104.26V65.31L294.83 45.84L328.48 65.27V104.32L294.84 123.74L261.11 104.27L261.1 104.26ZM263.69 66.81V102.77L294.83 120.75L325.89 102.82V66.76L294.83 48.83L263.69 66.81Z" fill="#8B8B8B"/>
<path d="M1187.51 365.55V326.5L1221.15 307.08L1254.88 326.56V365.5L1221.15 384.97L1187.51 365.55ZM1190.1 328V364.06L1221.16 381.99L1252.3 364.01V328.05L1221.16 310.07L1190.11 328H1190.1Z" fill="#8B8B8B"/>
<path d="M1446.33 82.01V43.06L1480.06 23.59L1513.71 43.02V82.07L1480.07 101.49L1446.34 82.02L1446.33 82.01ZM1448.92 44.55V80.51L1480.06 98.49L1511.12 80.56V44.5L1480.06 26.57L1448.92 44.55Z" fill="#8B8B8B"/>
<path d="M1516.38 82.06V43.01L1550.02 23.59L1583.66 43.01V82.06L1550.02 101.48L1516.38 82.06ZM1518.97 44.5V80.56L1550.03 98.49L1581.09 80.56V44.5L1550.03 26.57L1518.97 44.5Z" fill="#8B8B8B"/>
<g opacity="0.1">
<path d="M552.32 136.99V162.39L530.32 175.1L508.32 162.39V136.99L530.32 124.28L552.32 136.99Z" fill="#8B8B8B"/>
<path d="M579.56 38.93V13.45L601.51 0.780029L623.51 13.49V38.89L601.51 51.6L579.56 38.93Z" fill="#8B8B8B"/>
<path d="M647.18 80.1001L625.24 92.7601L603.24 80.0601V54.6601L625.24 41.9501L647.18 54.6201V80.1001Z" fill="#8B8B8B"/>
<path d="M623.51 121.23L601.51 133.93L579.56 121.26V95.79L601.51 83.12L623.51 95.82V121.23Z" fill="#8B8B8B"/>
<path d="M745.67 80.1001V54.6201L767.62 41.9501L789.62 54.6501V80.0601L767.61 92.7601L745.67 80.1001Z" fill="#8B8B8B"/>
<path d="M674.48 203.6V178.12L696.43 165.45L718.43 178.15V203.56L696.43 216.27L674.48 203.6Z" fill="#8B8B8B"/>
<path d="M576 13.45V38.93L554.05 51.6L532.05 38.89V13.49L554.05 0.780029L576 13.45Z" fill="#8B8B8B"/>
<path d="M1186.55 51.88V26.41L1208.49 13.74L1230.5 26.44V51.85L1208.49 64.55L1186.55 51.88Z" fill="#8B8B8B"/>
<path d="M1225.23 551.85V526.37L1247.18 513.7L1269.18 526.41V551.81L1247.18 564.52L1225.23 551.85Z" fill="#8B8B8B"/>
<path d="M718.37 38.93L696.43 51.6L674.42 38.89V13.49L696.43 0.780029L718.37 13.45V38.93Z" fill="#8B8B8B"/>
<path d="M698.21 54.6201L720.16 41.9501L742.1 54.6201V80.1001L720.16 92.7601L698.21 80.1001V54.6201Z" fill="#8B8B8B"/>
<path d="M1567.11 625.13L1545.1 637.84L1523.1 625.13V599.73L1545.1 587.02L1567.11 599.73V625.13Z" fill="#8B8B8B"/>
<path d="M1590.78 666.33L1568.83 679L1546.83 666.3V640.89L1568.84 628.19L1590.78 640.86V666.33Z" fill="#8B8B8B"/>
<path d="M1570.62 682.03L1592.56 669.36L1614.51 682.03V707.5L1592.56 720.17L1570.62 707.5V682.03Z" fill="#8B8B8B"/>
<path d="M650.75 54.6201L672.7 41.9501L694.64 54.6201V80.1001L672.7 92.7601L650.75 80.1001V54.6201Z" fill="#8B8B8B"/>
<path d="M765.89 38.89L743.89 51.6L721.94 38.93V13.45L743.89 0.780029L765.89 13.49V38.89Z" fill="#8B8B8B"/>
<path d="M627.02 178.12L648.97 165.45L670.91 178.12V203.6L648.97 216.27L627.02 203.6V178.12Z" fill="#8B8B8B"/>
<path d="M694.7 162.39L672.7 175.1L650.75 162.43V136.95L672.7 124.28L694.7 136.99V162.39Z" fill="#8B8B8B"/>
<path d="M818.44 445.12V419.65L840.39 406.98L862.39 419.68V445.09L840.39 457.79L818.44 445.12Z" fill="#8B8B8B"/>
<path d="M770.98 419.65L792.93 406.98L814.87 419.65V445.12L792.93 457.79L770.98 445.12V419.65Z" fill="#8B8B8B"/>
<path d="M838.66 403.92L816.66 416.63L794.71 403.96V378.48L816.66 365.81L838.66 378.52V403.92Z" fill="#8B8B8B"/>
<path d="M532.05 95.82L554.05 83.12L576 95.79V121.26L554.05 133.93L532.05 121.23V95.82Z" fill="#8B8B8B"/>
<path d="M623.45 203.6L601.51 216.27L579.51 203.56V178.15L601.51 165.45L623.45 178.12V203.6Z" fill="#8B8B8B"/>
<path d="M1049.49 320.08V294.61L1071.43 281.94L1093.43 294.64V320.05L1071.43 332.75L1049.49 320.08Z" fill="#8B8B8B"/>
<path d="M647.18 162.43L625.24 175.1L603.24 162.39V136.99L625.24 124.28L647.18 136.95V162.43Z" fill="#8B8B8B"/>
<path d="M351.58 736.12V710.65L373.53 697.98L395.53 710.68V736.09L373.52 748.79L351.58 736.12Z" fill="#8B8B8B"/>
<path d="M304.12 710.65L326.07 697.98L348.01 710.65V736.12L326.07 748.79L304.12 736.12V710.65Z" fill="#8B8B8B"/>
<path d="M371.8 694.92L349.79 707.62L327.85 694.95V669.48L349.79 656.81L371.8 669.51V694.92Z" fill="#8B8B8B"/>
<path d="M324.28 694.95L302.34 707.62L280.33 694.92V669.51L302.34 656.81L324.28 669.48V694.95Z" fill="#8B8B8B"/>
</g>
<g opacity="0.5">
<path d="M0 247.74V148.34L86.08 98.64L171.94 148.21V247.87L86.08 297.44L0 247.74ZM2.59 149.83V246.24L86.09 294.45L169.36 246.37V149.7L86.08 101.62L2.59 149.83Z" fill="#8B8B8B"/>
<path d="M183.11 247.87V148.21L268.97 98.64L354.83 148.21V247.87L268.97 297.44L183.11 247.87ZM185.7 149.71V246.38L268.97 294.46L352.24 246.38V149.71L268.97 101.63L185.7 149.71Z" fill="#8B8B8B"/>
<path d="M284.68 549.33V449.93L370.76 400.23L456.62 449.8V549.46L370.76 599.03L284.68 549.33ZM287.27 451.42V547.83L370.77 596.04L454.04 547.96V451.29L370.76 403.21L287.27 451.41V451.42Z" fill="#8B8B8B"/>
<path d="M927.91 198.97V99.31L1013.77 49.74L1099.63 99.31V198.97L1013.77 248.54L927.91 198.97ZM930.49 100.8V197.47L1013.76 245.55L1097.03 197.47V100.8L1013.76 52.73L930.49 100.8Z" fill="#8B8B8B"/>
<path d="M1110.79 198.97V99.31L1196.65 49.74L1282.73 99.44V198.84L1196.65 248.54L1110.79 198.97ZM1113.38 100.8V197.47L1196.65 245.55L1280.15 197.34V100.93L1196.66 52.73L1113.38 100.81V100.8Z" fill="#8B8B8B"/>
</g>
</g>
<g opacity="0.3">
<path d="M2094.19 98.4101V152.38L2140.68 179.22L2187.29 152.31V98.4901L2140.67 71.5801L2094.19 98.4101Z" fill="#8B8B8B"/>
<path d="M2338.09 185.7L2291.48 158.79L2244.87 185.7V239.52L2291.48 266.43L2338.09 239.52V185.7Z" fill="#8B8B8B"/>
<path d="M2388.24 98.4201L2341.75 71.5801L2295.14 98.4901V152.31L2341.75 179.22L2388.24 152.38V98.4201Z" fill="#8B8B8B"/>
<path d="M2488.9 98.4901L2442.29 71.5801L2395.8 98.4201V152.38L2442.29 179.22L2488.9 152.31V98.4901Z" fill="#8B8B8B"/>
<path d="M2043.79 239.52L2090.41 266.43L2137.02 239.52V185.7L2090.41 158.79L2043.79 185.7V239.52Z" fill="#8B8B8B"/>
<path d="M2187.29 272.91L2140.68 246L2094.19 272.84V326.8L2140.68 353.64L2187.29 326.73V272.91Z" fill="#8B8B8B"/>
<path d="M1772.39 244.19V298.15L1818.88 324.99L1865.49 298.08V244.26L1818.88 217.35L1772.39 244.19Z" fill="#8B8B8B"/>
<path d="M1815.22 331.47L1768.61 304.56L1722.12 331.4V385.36L1768.61 412.2L1815.22 385.29V331.47Z" fill="#8B8B8B"/>
</g>
<path d="M2346.34 614.69V558.72L2394.81 530.74L2443.16 558.66V614.77L2394.82 642.68L2346.34 614.69ZM2350.06 560.87V612.54L2394.82 638.38L2439.44 612.62V560.8L2394.81 535.03L2350.06 560.87Z" fill="#8B8B8B"/>
<path d="M2195.53 527.48V471.52L2244.01 443.53L2292.48 471.51V527.48L2244.01 555.46L2195.53 527.47V527.48ZM2199.25 473.67V525.34L2244.01 551.18L2288.76 525.34V473.66L2244.01 447.82L2199.25 473.66V473.67Z" fill="#8B8B8B"/>
<path d="M2296.2 701.98V645.86L2344.54 617.95L2393.02 645.94V701.9L2344.54 729.89L2296.2 701.98ZM2299.92 648.01V699.83L2344.54 725.59L2389.3 699.75V648.08L2344.54 622.24L2299.92 648V648.01Z" fill="#8B8B8B"/>
<path d="M1994.46 701.9V645.93L2042.93 617.95L2091.28 645.86V701.97L2042.93 729.88L1994.46 701.89V701.9ZM1998.18 648.08V699.76L2042.93 725.6L2087.56 699.83V648.01L2042.93 622.24L1998.18 648.08Z" fill="#8B8B8B"/>
<path d="M2447 614.77V558.66L2495.35 530.75L2543.82 558.73V614.7L2495.35 642.69L2447 614.78V614.77ZM2450.72 560.8V612.62L2495.35 638.39L2540.1 612.55V560.87L2495.35 535.03L2450.72 560.8Z" fill="#8B8B8B"/>
<path d="M2044.73 440.28V384.31L2093.2 356.32L2141.55 384.23V440.35L2093.2 468.26L2044.73 440.27V440.28ZM2048.45 386.45V438.13L2093.2 463.97L2137.83 438.2V386.38L2093.2 360.61L2048.45 386.45Z" fill="#8B8B8B"/>
<path d="M1847.63 138.31V82.3401L1896.1 54.3501L1944.45 82.2601V138.37L1896.1 166.28L1847.63 138.29V138.31ZM1851.35 84.4801V136.16L1896.1 162L1940.73 136.23V84.4101L1896.1 58.6401L1851.35 84.4801Z" fill="#8B8B8B"/>
<path d="M2246.29 155.41V99.4401L2294.76 71.4501L2343.11 99.3601V155.47L2294.76 183.38L2246.29 155.39V155.41ZM2250.01 101.59V153.27L2294.76 179.11L2339.39 153.34V101.52L2294.76 75.7501L2250.01 101.59Z" fill="#8B8B8B"/>
<path d="M1535.24 574.16V518.19L1583.71 490.2L1632.06 518.11V574.23L1583.71 602.14L1535.24 574.15V574.16ZM1538.96 520.33V572.01L1583.71 597.85L1628.34 572.08V520.26L1583.71 494.49L1538.96 520.33Z" fill="#8B8B8B"/>
<path d="M1254.84 615.81V559.84L1303.31 531.85L1351.66 559.76V615.88L1303.31 643.79L1254.84 615.8V615.81ZM1258.56 561.98V613.66L1303.31 639.5L1347.94 613.73V561.91L1303.31 536.14L1258.56 561.98Z" fill="#8B8B8B"/>
<path d="M2447 440.35V384.24L2495.35 356.33L2543.82 384.32V440.29L2495.35 468.27L2447 440.35ZM2450.72 386.38V438.2L2495.35 463.97L2540.1 438.13V386.45L2495.35 360.61L2450.72 386.38Z" fill="#8B8B8B"/>
<path d="M2145.39 614.76V558.65L2193.73 530.74L2242.21 558.73V614.69L2193.74 642.68L2145.39 614.77V614.76ZM2149.11 560.8V612.62L2193.74 638.39L2238.49 612.55V560.88L2193.73 535.04L2149.11 560.8Z" fill="#8B8B8B"/>
<path d="M2095.12 701.98V645.87L2143.47 617.96L2191.82 645.87V701.98L2143.47 729.89L2095.12 701.98ZM2098.84 648.01V699.83L2143.47 725.6L2188.1 699.83V648.01L2143.47 622.24L2098.84 648.01Z" fill="#8B8B8B"/>
<path d="M2195.66 701.98V645.87L2244.01 617.96L2292.35 645.87V701.99L2244 729.9L2195.65 701.99L2195.66 701.98ZM2199.38 648.01V699.83L2244.01 725.6L2288.64 699.83V648.01L2244.02 622.25L2199.39 648.02L2199.38 648.01Z" fill="#8B8B8B"/>
<path d="M2044.73 614.69V558.72L2093.2 530.73L2141.55 558.64V614.75L2093.2 642.66L2044.73 614.67V614.69ZM2048.45 560.87V612.54L2093.2 638.38L2137.83 612.61V560.79L2093.2 535.02L2048.45 560.86V560.87Z" fill="#8B8B8B"/>
<path d="M2396.61 527.48V471.52L2445.08 443.53L2493.55 471.52V527.48L2445.08 555.47L2396.61 527.48ZM2400.33 473.67V525.34L2445.08 551.18L2489.83 525.34V473.67L2445.08 447.83L2400.33 473.67Z" fill="#8B8B8B"/>
<path d="M2522.12 128.71V72.6001L2570.47 44.6901L2618.94 72.6801V128.65L2570.47 156.63L2522.12 128.71ZM2525.84 74.7401V126.56L2570.47 152.33L2615.22 126.49V74.8101L2570.47 48.9701L2525.84 74.7401Z" fill="#8B8B8B"/>
<path d="M2471.73 215.84V159.88L2520.2 131.89L2568.67 159.88V215.84L2520.2 243.83L2471.73 215.84ZM2475.45 162.03V213.7L2520.2 239.54L2564.95 213.7V162.03L2520.2 136.19L2475.45 162.03Z" fill="#8B8B8B"/>
<path d="M2346.34 440.28V384.31L2394.81 356.32L2443.16 384.23V440.34L2394.81 468.26L2346.34 440.28ZM2350.06 386.45V438.13L2394.81 463.97L2439.44 438.2V386.38L2394.81 360.61L2350.06 386.45Z" fill="#8B8B8B"/>
<path d="M2145.39 440.35V384.23L2193.74 356.32L2242.21 384.31V440.28L2193.73 468.27L2145.39 440.36V440.35ZM2149.11 386.38V438.2L2193.73 463.96L2238.49 438.12V386.45L2193.74 360.61L2149.11 386.38Z" fill="#8B8B8B"/>
<path d="M1165.98 152.07V96.1001L1214.45 68.1201L1262.8 96.0401V152.15L1214.46 180.06L1165.98 152.07ZM1169.69 98.2501V149.92L1214.45 175.76L1259.07 150V98.1801L1214.44 72.4101L1169.69 98.2501Z" fill="#8B8B8B"/>
<path d="M1115.83 239.35V183.23L1164.17 155.32L1212.65 183.31V239.27L1164.17 267.26L1115.83 239.35ZM1119.55 185.38V237.2L1164.17 262.96L1208.93 237.12V185.45L1164.17 159.61L1119.55 185.37V185.38Z" fill="#8B8B8B"/>
<path d="M814.09 239.28V183.31L862.56 155.33L910.91 183.25V239.36L862.56 267.27L814.09 239.28ZM817.81 185.46V237.14L862.56 262.98L907.19 237.21V185.39L862.56 159.62L817.81 185.46Z" fill="#8B8B8B"/>
<path d="M964.9 500.91V444.94L1013.37 416.96L1061.72 444.87V500.98L1013.37 528.89L964.9 500.9V500.91ZM968.62 447.08V498.76L1013.37 524.6L1058 498.83V447.01L1013.37 421.24L968.62 447.08Z" fill="#8B8B8B"/>
<path d="M965.03 152.14V96.0301L1013.37 68.1201L1061.85 96.1101V152.07L1013.38 180.06L965.03 152.15V152.14ZM968.74 98.1701V149.99L1013.37 175.76L1058.12 149.92V98.2501L1013.36 72.4101L968.73 98.1701H968.74Z" fill="#8B8B8B"/>
<path d="M914.76 239.35V183.24L963.11 155.33L1011.46 183.24V239.35L963.11 267.26L914.76 239.35ZM918.48 185.39V237.21L963.11 262.98L1007.74 237.21V185.39L963.11 159.62L918.48 185.39Z" fill="#8B8B8B"/>
<path d="M1015.29 239.35V183.24L1063.64 155.32L1111.98 183.23V239.35L1063.63 267.26L1015.28 239.35H1015.29ZM1019.01 185.39V237.21L1063.64 262.98L1108.27 237.21V185.39L1063.65 159.63L1019.02 185.4L1019.01 185.39Z" fill="#8B8B8B"/>
<path d="M864.36 152.07V96.1001L912.83 68.1101L961.18 96.0201V152.13L912.83 180.04L864.36 152.05V152.07ZM868.08 98.2501V149.92L912.83 175.76L957.46 149.99V98.1701L912.83 72.4001L868.08 98.2401V98.2501Z" fill="#8B8B8B"/>
<path d="M2668.14 468.92V412.95L2716.61 384.97L2764.96 412.89V469L2716.61 496.91L2668.14 468.92ZM2671.86 415.1V466.78L2716.61 492.62L2761.24 466.85V415.03L2716.61 389.26L2671.86 415.1Z" fill="#8B8B8B"/>
<path d="M2768.8 469V412.89L2817.15 384.98L2865.5 412.89V469L2817.15 496.91L2768.8 469ZM2772.52 415.03V466.85L2817.15 492.62L2861.78 466.85V415.03L2817.15 389.26L2772.52 415.03Z" fill="#8B8B8B"/>
<path d="M2718.41 381.71V325.74L2766.88 297.75L2815.23 325.66V381.77L2766.88 409.68L2718.41 381.69V381.71ZM2722.12 327.89V379.56L2766.87 405.4L2811.5 379.63V327.81L2766.87 302.04L2722.12 327.88V327.89Z" fill="#8B8B8B"/>
<path d="M2819.07 381.78V325.67L2867.41 297.76L2915.89 325.75V381.71L2867.42 409.7L2819.07 381.79V381.78ZM2822.79 327.82V379.64L2867.42 405.41L2912.17 379.57V327.9L2867.41 302.06L2822.79 327.82Z" fill="#8B8B8B"/>
<g opacity="0.1">
<path d="M1383.4 547.94V584.45L1351.78 602.7L1320.16 584.45V547.93L1351.78 529.68L1383.4 547.94Z" fill="#8B8B8B"/>
<path d="M1422.55 407.02V370.41L1454.09 352.2L1485.7 370.46V406.97L1454.08 425.23L1422.55 407.02Z" fill="#8B8B8B"/>
<path d="M1588 347.81L1556.38 366.07L1524.76 347.81V311.3L1556.38 293.05L1588 311.3V347.81Z" fill="#8B8B8B"/>
<path d="M1519.72 466.18L1488.19 484.38L1456.56 466.13V429.62L1488.19 411.36L1519.72 429.57V466.18Z" fill="#8B8B8B"/>
<path d="M1485.7 525.29L1454.08 543.54L1422.55 525.34V488.73L1454.08 470.52L1485.7 488.78V525.29Z" fill="#8B8B8B"/>
<path d="M1661.25 466.18V429.57L1692.79 411.36L1724.41 429.62V466.13L1692.79 484.39L1661.25 466.18Z" fill="#8B8B8B"/>
<path d="M1558.95 643.65V607.05L1590.49 588.84L1622.1 607.09V643.61L1590.49 661.86L1558.95 643.65Z" fill="#8B8B8B"/>
<path d="M1417.42 370.41V407.02L1385.88 425.23L1354.26 406.97V370.46L1385.88 352.2L1417.42 370.41Z" fill="#8B8B8B"/>
<path d="M1627.15 288.7V252.09L1658.69 233.89L1690.31 252.14V288.65L1658.69 306.91L1627.15 288.7Z" fill="#8B8B8B"/>
<path d="M1217.46 192.15V155.54L1248.99 137.34L1280.61 155.59V192.1L1248.99 210.36L1217.46 192.15Z" fill="#8B8B8B"/>
<path d="M2294.81 425.63V389.02L2326.35 370.82L2357.97 389.07V425.58L2326.35 443.84L2294.81 425.63Z" fill="#8B8B8B"/>
<path d="M721.86 149.18V112.57L753.39 94.36L785.01 112.62V149.13L753.39 167.38L721.86 149.18Z" fill="#8B8B8B"/>
<path d="M1417.42 252.09V288.7L1385.88 306.91L1354.26 288.65V252.14L1385.88 233.89L1417.42 252.09Z" fill="#8B8B8B"/>
<path d="M1622.02 407.02L1590.49 425.22L1558.87 406.97V370.46L1590.49 352.2L1622.02 370.41V407.02Z" fill="#8B8B8B"/>
<path d="M1593.05 429.57L1624.59 411.36L1656.12 429.57V466.18L1624.59 484.39L1593.05 466.18V429.57Z" fill="#8B8B8B"/>
<path d="M1524.85 429.57L1556.38 411.36L1587.92 429.57V466.18L1556.38 484.39L1524.85 466.18V429.57Z" fill="#8B8B8B"/>
<path d="M1690.31 406.97L1658.69 425.22L1627.15 407.02V370.41L1658.69 352.2L1690.31 370.46V406.97Z" fill="#8B8B8B"/>
<path d="M1490.75 607.05L1522.28 588.84L1553.82 607.05V643.65L1522.29 661.86L1490.75 643.65V607.05Z" fill="#8B8B8B"/>
<path d="M1588 584.44L1556.38 602.7L1524.85 584.49V547.89L1556.38 529.68L1588 547.93V584.44Z" fill="#8B8B8B"/>
<path d="M1388.36 311.3L1419.98 293.05L1451.6 311.3V347.81L1419.98 366.07L1388.36 347.81V311.3Z" fill="#8B8B8B"/>
<path d="M900.12 185.73V222.33L868.58 240.54L836.96 222.29V185.78L868.58 167.52L900.12 185.73Z" fill="#8B8B8B"/>
<path d="M871.06 244.94L902.68 226.68L934.3 244.94V281.44L902.68 299.7L871.06 281.44V244.94Z" fill="#8B8B8B"/>
<path d="M1354.26 488.78L1385.88 470.52L1417.42 488.73V525.34L1385.89 543.54L1354.26 525.29V488.78Z" fill="#8B8B8B"/>
<path d="M1485.62 643.65L1454.08 661.86L1422.46 643.61V607.09L1454.08 588.84L1485.62 607.05V643.65Z" fill="#8B8B8B"/>
<path d="M1485.7 288.65L1454.09 306.91L1422.55 288.7V252.09L1454.08 233.89L1485.7 252.14V288.65Z" fill="#8B8B8B"/>
<path d="M1622.02 288.7L1590.49 306.91L1558.87 288.65V252.14L1590.49 233.89L1622.02 252.09V288.7Z" fill="#8B8B8B"/>
<path d="M2723.07 114.77V78.1601L2754.61 59.9501L2786.22 78.2001V114.71L2754.6 132.97L2723.07 114.77Z" fill="#8B8B8B"/>
<path d="M2888.52 55.56L2856.9 73.81L2825.28 55.56V19.05L2856.9 0.790039L2888.52 19.05V55.56Z" fill="#8B8B8B"/>
<path d="M2820.24 173.92L2788.71 192.13L2757.08 173.87V137.37L2788.71 119.11L2820.24 137.31V173.92Z" fill="#8B8B8B"/>
<path d="M2961.77 173.92V137.32L2993.31 119.11L3024.93 137.36V173.87L2993.31 192.13L2961.77 173.92Z" fill="#8B8B8B"/>
<path d="M2922.54 114.76L2891 132.97L2859.38 114.71V78.2101L2891.01 59.9501L2922.54 78.1601V114.76Z" fill="#8B8B8B"/>
<path d="M2893.57 137.32L2925.11 119.11L2956.64 137.32V173.92L2925.11 192.13L2893.57 173.92V137.32Z" fill="#8B8B8B"/>
<path d="M2825.37 137.31L2856.9 119.11L2888.44 137.32V173.92L2856.9 192.13L2825.37 173.92V137.31Z" fill="#8B8B8B"/>
<path d="M2990.83 114.71L2959.21 132.97L2927.67 114.76V78.1601L2959.21 59.9501L2990.83 78.2001V114.71Z" fill="#8B8B8B"/>
<path d="M1519.72 584.49L1488.18 602.7L1456.56 584.44V547.94L1488.19 529.68L1519.72 547.89V584.49Z" fill="#8B8B8B"/>
</g>
<g opacity="0.5">
<path d="M589.69 707.09V564.24L713.39 492.82L836.78 564.06V707.27L713.4 778.5L589.69 707.08V707.09ZM593.41 566.39V704.94L713.4 774.22L833.06 705.13V566.21L713.39 497.12L593.41 566.39Z" fill="#8B8B8B"/>
<path d="M984.23 479.3V336.09L1107.6 264.86L1231.32 336.29V479.11L1107.61 550.53L984.23 479.3ZM987.95 338.23V477.15L1107.61 546.24L1227.6 476.96V338.43L1107.6 269.15L987.95 338.23Z" fill="#8B8B8B"/>
<path d="M852.83 707.28V564.07L976.21 492.84L1099.59 564.07V707.28L976.21 778.51L852.83 707.28ZM856.55 566.21V705.13L976.21 774.22L1095.87 705.13V566.21L976.21 497.12L856.55 566.21Z" fill="#8B8B8B"/>
<path d="M1292.42 324.02V180.81L1415.8 109.58L1539.18 180.81V324.02L1415.8 395.25L1292.42 324.02ZM1296.14 182.95V321.87L1415.8 390.96L1535.46 321.87V182.95L1415.8 113.86L1296.14 182.95Z" fill="#8B8B8B"/>
<path d="M1923.13 637V493.79L2046.51 422.56L2169.89 493.79V637L2046.51 708.23L1923.13 637ZM1926.85 495.93V634.85L2046.51 703.94L2166.17 634.85V495.93L2046.51 426.84L1926.85 495.93Z" fill="#8B8B8B"/>
<path d="M1791.4 408.83V265.99L1915.11 194.57L2038.49 265.8V409.01L1915.11 480.24L1791.4 408.82V408.83ZM1795.12 268.14V406.68L1915.11 475.95L2034.77 406.86V267.94L1915.11 198.85L1795.12 268.13V268.14Z" fill="#8B8B8B"/>
<path d="M2185.94 637V493.79L2309.33 422.55L2433.03 493.97V636.82L2309.32 708.24L2185.94 637.01V637ZM2189.66 495.94V634.86L2309.32 703.95L2429.31 634.68V496.13L2309.33 426.86L2189.66 495.95V495.94Z" fill="#8B8B8B"/>
<path d="M2054.54 409.02V265.81L2177.91 194.58L2301.63 266.01V408.84L2177.92 480.26L2054.54 409.03V409.02ZM2058.26 267.96V406.88L2177.92 475.97L2297.91 406.7V268.17L2177.91 198.89L2058.26 267.97V267.96Z" fill="#8B8B8B"/>
</g>
</g>
<text fill="white" xml:space="preserve" style="white-space: pre" font-family="Inter" font-size="120" font-weight="bold" letter-spacing="0em"><tspan x="1102.84" y="288.136">Hello There &#x270c;&#xfe0f;&#10;</tspan><tspan x="988" y="433.136">I&#x2019;m Abdul Rahman&#10;</tspan><tspan x="1256.89" y="578.136">AKA abd&#xfe0f;</tspan></text>
<defs>
<clipPath id="clip0_17_716">
<rect width="3024.93" height="780.17" fill="white"/>
</clipPath>
</defs>
</svg>
