<svg width="541" height="380" viewBox="0 0 541 380" fill="none" xmlns="http://www.w3.org/2000/svg">
<g opacity="0.3">
<path d="M385.006 275.53L368.91 303.423L385.006 331.309H417.196L433.291 303.423L417.196 275.53H385.006Z" fill="white"/>
<path d="M280.641 210.931H312.915L328.968 183.116L312.873 155.229H280.683L264.588 183.116L280.641 210.931Z" fill="white"/>
<path d="M332.844 185.306L316.749 213.193L332.802 241.008H365.082L381.136 213.193L365.034 185.306H332.844Z" fill="white"/>
<path d="M156.438 361.308L172.491 333.493L156.438 305.684H124.158L108.104 333.493L124.158 361.308H156.438Z" fill="white"/>
<path d="M176.367 275.53L160.271 303.423L176.319 331.232H208.599L224.652 303.423L208.557 275.53H176.367Z" fill="white"/>
<path d="M138.554 66.8242L122.453 94.7171L138.506 122.526H170.786L186.839 94.7171L170.744 66.8242H138.554Z" fill="white"/>
</g>
<path d="M496.726 360.824H463.256L446.515 331.818L463.25 302.818H496.726L513.461 331.818L496.72 360.824H496.726ZM464.536 358.598H495.44L510.895 331.818L495.44 305.044H464.53L449.075 331.818L464.53 358.598H464.536Z" fill="white"/>
<path d="M274.188 330.46H240.711L223.97 301.46L240.663 272.532H274.223L290.917 301.46L274.176 330.46H274.188ZM241.991 328.234H272.902L288.357 301.46L272.943 274.758H241.949L226.536 301.46L241.991 328.234Z" fill="white"/>
<path d="M444.607 210.369H411.047L394.354 181.441L411.095 152.441H444.571L461.306 181.441L444.607 210.369ZM412.333 208.149H443.327L458.74 181.447L443.285 154.673H412.375L396.92 181.447L412.333 208.149Z" fill="white"/>
<path d="M258.212 165.424H224.652L207.959 136.496L224.7 107.497H258.176L274.911 136.496L258.212 165.424ZM225.938 163.199H256.932L272.345 136.496L256.89 109.722H225.98L210.525 136.496L225.938 163.199Z" fill="white"/>
<path d="M310.331 195.579H276.861L260.12 166.579L276.861 137.579H310.331L327.073 166.579L310.331 195.579ZM278.141 193.353H309.046L324.501 166.579L309.046 139.805H278.141L262.686 166.579L278.141 193.353Z" fill="white"/>
<path d="M444.565 270.6H411.089L394.348 241.6L411.041 212.672H444.601L461.3 241.6L444.565 270.6ZM412.375 268.374H443.285L458.74 241.6L443.327 214.898H412.333L396.92 241.6L412.375 268.374Z" fill="white"/>
<g opacity="0.5">
<path d="M136.652 194.855H51.2121L8.49512 120.845L51.1045 47.0205H136.76L179.363 120.839L136.646 194.855H136.652ZM52.4981 192.629H135.366L176.797 120.839L135.474 49.2462H52.3904L11.067 120.845L52.4981 192.629Z" fill="white"/>
<path d="M382.117 366.759H296.694L253.971 292.737L296.575 218.924H382.236L424.84 292.737L382.117 366.759ZM297.974 364.533H380.831L422.268 292.737L380.95 221.15H297.855L256.537 292.737L297.974 364.533Z" fill="white"/>
<path d="M382.236 209.322H296.575L253.971 135.503L296.688 61.4874H382.123L424.846 135.509L382.242 209.322H382.236ZM297.855 207.096H380.95L422.268 135.509L380.831 63.7131H297.968L256.531 135.503L297.855 207.096Z" fill="white"/>
</g>
<g opacity="0.5">
<g opacity="0.3">
<path d="M240.992 168.691L229.79 188.1L240.992 207.503H263.391L274.594 188.1L263.391 168.691H240.992Z" fill="white"/>
<path d="M168.37 123.735H190.829L202.001 104.38L190.799 84.9767H168.4L157.197 104.38L168.37 123.735Z" fill="white"/>
<path d="M190.829 207.455L202.001 188.1L190.829 168.745H168.37L157.197 188.1L168.37 207.455H190.829Z" fill="white"/>
<path d="M81.9369 228.384L93.1096 209.029L81.9369 189.673H59.4779L48.3052 209.029L59.4779 228.384H81.9369Z" fill="white"/>
<path d="M95.8071 168.691L84.6045 188.1L95.7772 207.455H118.236L129.409 188.1L118.206 168.691H95.8071Z" fill="white"/>
<path d="M69.4903 23.4594L58.2937 42.8683L69.4604 62.2233H91.9254L103.092 42.8683L91.8895 23.4594H69.4903Z" fill="white"/>
<path d="M263.391 291.223L274.594 271.814L263.391 252.405H240.992L229.79 271.814L240.992 291.223H263.391Z" fill="white"/>
<path d="M277.286 231.477L266.089 250.886L277.262 270.241H299.721L310.894 250.886L299.691 231.477H277.286Z" fill="white"/>
<path d="M95.7772 210.602L84.6045 229.957L95.8071 249.36H118.206L129.403 229.957L118.236 210.602H95.7772Z" fill="white"/>
</g>
<path d="M383.247 228.043H359.957L348.305 207.862L359.951 187.681H383.247L394.892 207.862L383.241 228.043H383.247ZM360.848 226.499H382.356L393.11 207.868L382.356 189.237H360.848L350.094 207.868L360.848 226.499Z" fill="white"/>
<path d="M455.87 186.137H432.513L420.898 166.011L432.549 145.83H455.84L467.491 166.011L455.876 186.137H455.87ZM433.411 184.588H454.978L465.703 166.011L454.949 147.38H433.441L422.687 166.011L433.411 184.588Z" fill="white"/>
<path d="M221.267 372.891H197.97L186.325 352.711L197.94 332.584H221.297L232.912 352.711L221.267 372.891ZM198.868 371.348H220.376L231.13 352.717L220.405 334.133H198.838L188.114 352.717L198.868 371.348Z" fill="white"/>
<path d="M46.6725 347.811H23.3762L11.731 327.63L23.3463 307.503H46.7025L58.3178 327.63L46.6725 347.811ZM24.2733 346.261H45.7814L56.5354 327.63L45.8113 309.047H24.2434L13.5193 327.63L24.2733 346.261Z" fill="white"/>
<path d="M228.39 206.916H205.094L193.449 186.736L205.064 166.609H228.42L240.036 186.736L228.39 206.916ZM205.985 205.367H227.493L238.247 186.736L227.523 168.153H205.955L195.231 186.736L205.985 205.367Z" fill="white"/>
<path d="M217.272 92.0725H193.915L182.3 71.9457L193.945 51.765H217.242L228.887 71.9457L217.266 92.0785L217.272 92.0725ZM194.813 90.5229H216.38L227.104 71.9397L216.35 53.3086H194.842L184.088 71.9397L194.813 90.5229Z" fill="white"/>
<path d="M253.541 113.055H230.25L218.605 92.8743L230.25 72.6936H253.541L265.186 92.8743L253.541 113.055ZM231.142 111.505H252.65L263.404 92.8743L252.65 74.2432H231.148L220.394 92.8743L231.148 111.505H231.142Z" fill="white"/>
<path d="M528.462 186.137H505.106L493.491 166.011L505.142 145.83H528.432L540.078 166.011L528.462 186.137ZM506.003 184.588H527.571L538.295 166.005L527.541 147.374H506.033L495.279 166.005L506.003 184.582V184.588Z" fill="white"/>
<g opacity="0.1">
<path d="M340.853 186.712H325.619L318.041 173.579L325.637 160.417H340.835L348.431 173.579L340.853 186.712Z" fill="white"/>
<path d="M42.2106 186.856H26.9767L19.3987 173.729L26.9947 160.56H42.1927L49.7887 173.729L42.2106 186.856Z" fill="white"/>
<path d="M26.9767 215.251L19.3987 202.124L26.9767 188.991H42.2106L49.7887 202.124L42.2106 215.251H26.9767Z" fill="white"/>
<path d="M17.5684 174.758L25.1644 187.926L17.5863 201.053H2.35247L-5.22559 187.926L2.37041 174.758H17.5684Z" fill="white"/>
<path d="M501.266 268.715H486.032L478.454 255.588L486.05 242.42H501.248L508.844 255.588L501.266 268.715Z" fill="white"/>
</g>
<g opacity="0.5">
<path d="M238.983 232.177H179.537L149.811 180.669L179.459 129.305H239.067L268.715 180.669L238.989 232.177H238.983ZM180.428 230.627H238.086L266.921 180.669L238.169 130.854H180.344L151.593 180.669L180.428 230.627Z" fill="white"/>
<path d="M239.061 122.616H179.453L149.805 71.2457L179.531 19.7439H238.983L268.709 71.2517L239.061 122.616ZM180.344 121.072H238.169L266.921 71.2577L238.086 21.2995H180.422L151.587 71.2577L180.344 121.078V121.072Z" fill="white"/>
<path d="M428.829 232.039H369.221L339.573 180.669L369.299 129.167H428.751L458.477 180.669L428.829 232.039ZM370.118 230.49H427.938L456.695 180.669L427.86 130.711H370.196L341.367 180.663L370.124 230.49H370.118Z" fill="white"/>
</g>
</g>
</svg>
