<svg width="540" height="380" viewBox="0 0 540 380" fill="none" xmlns="http://www.w3.org/2000/svg">
<g opacity="0.3">
<path d="M416.423 195.3H448.786L464.889 167.406L448.75 139.451H416.465L400.326 167.412L416.423 195.3Z" fill="white"/>
<path d="M468.769 169.601L452.63 197.567L468.727 225.45H501.096L517.193 197.567L501.048 169.601H468.769Z" fill="white"/>
</g>
<path d="M352.922 150.165H319.354L302.567 121.089L319.306 92.0846H352.958L369.697 121.089L352.91 150.165H352.922ZM320.643 147.933H351.638L367.136 121.089L351.68 94.3161H320.601L305.146 121.089L320.643 147.933Z" fill="white"/>
<path d="M101.334 114.022H67.7656L50.9786 84.946L67.7176 55.9418H101.376L118.115 84.946L101.328 114.022H101.334ZM69.0551 111.797H100.05L115.548 84.952L100.092 58.1794H69.0131L53.5576 84.952L69.0551 111.797Z" fill="white"/>
<path d="M255.463 324.094H221.895L205.114 295.018L221.859 266.014H255.511L272.25 295.018L255.463 324.094ZM223.178 321.863H254.173L269.671 295.018L254.215 268.245H223.136L207.681 295.018L223.178 321.863Z" fill="white"/>
<path d="M255.505 263.71H221.853L205.114 234.706L221.853 205.702H255.505L272.244 234.706L255.505 263.71ZM223.136 261.479H254.215L269.671 234.706L254.215 207.933H223.136L207.681 234.706L223.136 261.479Z" fill="white"/>
<path d="M203.153 293.938H169.585L152.798 264.862L169.537 235.858H203.189L219.928 264.862L203.141 293.938H203.153ZM170.874 291.707H201.863L217.361 264.862L201.905 238.089H170.826L155.371 264.862L170.868 291.707H170.874Z" fill="white"/>
<g opacity="0.5">
<path d="M241.843 183.698H155.953L113.227 109.679L155.947 35.6719H241.843L284.563 109.685L241.843 183.698ZM157.236 181.467H240.553L281.99 109.685L240.553 37.9034H157.23L115.8 109.679L157.236 181.467Z" fill="white"/>
<path d="M475.172 183.896H389.504L346.67 109.685L389.39 35.6719H475.28L518 109.685L475.166 183.896H475.172ZM390.793 181.665H473.882L515.427 109.685L473.99 37.9034H390.673L349.237 109.685L390.787 181.665H390.793Z" fill="white"/>
</g>
<g opacity="0.5">
<g opacity="0.3">
<path d="M118.558 243.908H141.085L152.282 263.314L141.055 282.768H118.594L107.361 263.308L118.558 243.908Z" fill="white"/>
<path d="M82.1655 303.704L70.9623 284.298L82.1956 264.838H104.656L115.889 284.298L104.686 303.704H82.1655Z" fill="white"/>
<path d="M45.7969 282.768L34.5696 263.308L45.7669 243.908H68.2934L79.4908 263.308L68.2575 282.768H45.7969Z" fill="white"/>
<path d="M118.564 366.656L107.361 347.25L118.594 327.789H141.055L152.282 347.25L141.085 366.656H118.564Z" fill="white"/>
<path d="M104.686 306.86L115.889 326.266L104.686 345.672H82.1655L70.9623 326.266L82.1655 306.86H104.686Z" fill="white"/>
</g>
<path d="M399.061 83.9622H375.701L364.023 63.7282L375.671 43.5483H399.091L410.738 63.7282L399.061 83.9622ZM376.594 82.4085H398.161L408.945 63.7282L398.191 45.096H376.564L365.811 63.7282L376.594 82.4085Z" fill="white"/>
<path d="M416.441 201.017H393.081L381.404 180.783L393.051 160.603H416.471L428.118 180.783L416.441 201.017ZM393.981 199.463H415.548L426.331 180.783L415.578 162.151H393.951L383.197 180.783L393.981 199.463Z" fill="white"/>
<path d="M87.4074 224.298H64.0472L52.3701 204.064L64.0172 183.884H87.4374L99.0845 204.064L87.4074 224.298ZM64.9408 222.75H86.5078L97.2912 204.07L86.5378 185.438H64.9108L54.1574 204.07L64.9408 222.75Z" fill="white"/>
<path d="M149.337 74.5981H125.977L114.3 54.3641L125.953 34.1782H149.373L161.021 54.3581L149.343 74.5921L149.337 74.5981ZM126.877 73.0444H148.444L159.227 54.3641L148.474 35.7319H126.847L116.093 54.3641L126.877 73.0444Z" fill="white"/>
<path d="M112.939 53.6083H89.5785L77.9014 33.3743L89.5485 13.1944H112.969L124.616 33.3743L112.939 53.6083ZM90.4781 52.0606H112.045L122.829 33.3803L112.075 14.7481H90.4481L79.6946 33.3803L90.4781 52.0606Z" fill="white"/>
<path d="M222.903 238.113H199.542L187.865 217.879L199.518 197.693H222.939L234.586 217.873L222.903 238.107V238.113ZM200.442 236.56H222.009L232.792 217.873L222.039 199.247H200.412L189.658 217.879L200.442 236.56Z" fill="white"/>
<path d="M186.504 301.065H163.15L151.467 280.831L163.144 260.597H186.504L198.181 280.831L186.498 301.065H186.504ZM164.043 299.511H185.61L196.394 280.831L185.61 262.151H164.043L153.26 280.831L164.043 299.511Z" fill="white"/>
<path d="M259.331 259.043H235.911L224.264 238.863L235.947 218.629H259.301L270.984 238.863L259.337 259.043H259.331ZM236.805 257.49H258.432L269.185 238.863L258.402 220.183H236.835L226.051 238.863L236.805 257.49Z" fill="white"/>
<path d="M368.486 322.049H345.125L333.448 301.815L345.101 281.629H368.522L380.169 301.809L368.492 322.043L368.486 322.049ZM346.025 320.495H367.592L378.375 301.815L367.622 283.182H345.995L335.241 301.815L346.025 320.495Z" fill="white"/>
<path d="M150.111 364.016H126.751L115.074 343.782L126.721 323.602H150.141L161.788 343.782L150.111 364.016ZM127.645 362.463H149.211L159.995 343.782L149.241 325.15H127.614L116.861 343.782L127.645 362.463Z" fill="white"/>
<path d="M222.933 321.995H199.512L187.865 301.815L199.548 281.581H222.903L234.58 301.815L222.933 321.995ZM200.406 320.441H222.033L232.786 301.809L222.003 283.128H200.442L189.658 301.809L200.412 320.435L200.406 320.441Z" fill="white"/>
<path d="M259.331 342.978H235.911L224.264 322.799L235.911 302.619H259.331L270.978 322.799L259.331 342.978ZM236.805 341.425H258.432L269.185 322.792L258.432 304.16H236.805L226.051 322.792L236.805 341.425Z" fill="white"/>
<path d="M259.331 301.011H235.911L224.258 280.825L235.905 260.645H259.325L270.972 280.825L259.325 301.005L259.331 301.011ZM236.805 299.457H258.432L269.185 280.825L258.432 262.193H236.805L226.051 280.819L236.805 299.451V299.457Z" fill="white"/>
<path d="M222.903 364.016H199.542L187.865 343.782L199.512 323.602H222.933L234.58 343.782L222.903 364.016ZM200.442 362.463H222.009L232.792 343.782L222.039 325.15H200.412L189.658 343.782L200.442 362.463Z" fill="white"/>
<path d="M150.141 321.995H126.721L115.074 301.815L126.751 281.581H150.111L161.794 301.815L150.147 321.995H150.141ZM127.614 320.441H149.241L159.995 301.815L149.211 283.134H127.645L116.861 301.815L127.614 320.447V320.441Z" fill="white"/>
<g opacity="0.1">
<path d="M388.115 147.346H403.355L410.972 160.549L403.355 173.746H388.115L380.499 160.549L388.115 147.346Z" fill="white"/>
<path d="M329.304 131.005H314.028L306.43 117.843L314.046 104.646H329.286L336.903 117.843L329.304 131.005Z" fill="white"/>
<path d="M304.594 61.9406L312.211 75.1379L304.594 88.3353H289.355L281.738 75.1379L289.361 61.9406H304.594Z" fill="white"/>
<path d="M353.996 90.4469L361.594 103.608L353.972 116.806H338.738L331.115 103.608L338.714 90.4469H353.996Z" fill="white"/>
<path d="M378.663 104.646L386.28 117.843L378.687 131.005H363.406L355.807 117.843L363.43 104.646H378.663Z" fill="white"/>
<path d="M353.996 31.3647H338.714L331.115 18.1974L338.738 5H353.972L361.594 18.1974L353.996 31.3647Z" fill="white"/>
<path d="M428.064 74.0702H412.789L405.184 60.9028L412.807 47.7055H428.041L435.663 60.9028L428.064 74.0702Z" fill="white"/>
<path d="M314.028 133.146H329.304L336.903 146.314L329.286 159.511H314.046L306.43 146.314L314.028 133.146Z" fill="white"/>
<path d="M279.927 45.5999H264.645L257.046 32.4325L264.669 19.2352H279.903L287.525 32.4325L279.927 45.5999Z" fill="white"/>
<path d="M37.6763 203.392H22.4006L14.8019 190.231L22.4187 177.034H37.6583L45.2751 190.231L37.6763 203.392Z" fill="white"/>
<path d="M239.63 216.62H224.354L216.755 203.458L224.372 190.255H239.612L247.228 203.458L239.63 216.62Z" fill="white"/>
<path d="M264.645 133.146H279.927L287.525 146.314L279.903 159.511H264.669L257.046 146.314L264.645 133.146Z" fill="white"/>
<path d="M329.304 47.7414L336.903 60.9028L329.286 74.1002H314.046L306.43 60.9028L314.028 47.7414H329.304Z" fill="white"/>
<path d="M338.714 59.835L331.121 46.6676L338.714 33.5063H353.996L361.594 46.6676L353.996 59.835H338.714Z" fill="white"/>
<path d="M338.714 88.2993L331.115 75.138L338.714 61.9766H353.996L361.594 75.138L353.996 88.2993H338.714Z" fill="white"/>
<path d="M329.286 19.2352L336.903 32.4325L329.304 45.5999H314.028L306.43 32.4325L314.046 19.2352H329.286Z" fill="white"/>
<path d="M412.783 102.534L405.19 89.3731L412.783 76.2117H428.064L435.663 89.3731L428.064 102.534H412.783Z" fill="white"/>
<path d="M403.355 61.9406L410.972 75.1379L403.373 88.2993H388.097L380.499 75.1379L388.115 61.9406H403.355Z" fill="white"/>
<path d="M289.361 145.276L281.738 132.079L289.361 118.875H304.594L312.211 132.079L304.594 145.276H289.361Z" fill="white"/>
<path d="M236.949 349.091H252.224L259.823 362.258L252.206 375.456H236.967L229.35 362.252L236.949 349.091Z" fill="white"/>
<path d="M261.658 361.221L254.042 348.017L261.658 334.82H276.898L284.515 348.017L276.898 361.221H261.658Z" fill="white"/>
<path d="M363.424 159.511L355.807 146.314L363.406 133.146H378.687L386.28 146.314L378.663 159.511H363.424Z" fill="white"/>
<path d="M428.064 104.676L435.663 117.843L428.041 131.041H412.807L405.184 117.843L412.789 104.676H428.064Z" fill="white"/>
<path d="M279.903 104.646L287.525 117.843L279.927 131.005H264.645L257.046 117.843L264.669 104.646H279.903Z" fill="white"/>
<path d="M279.927 47.7414L287.525 60.9028L279.903 74.1002H264.669L257.046 60.9028L264.645 47.7414H279.927Z" fill="white"/>
<path d="M403.373 90.4469L410.972 103.608L403.355 116.806H388.115L380.499 103.608L388.097 90.4469H403.373Z" fill="white"/>
</g>
<g opacity="0.5">
<path d="M359.471 313.98H299.7L269.971 262.48L299.784 210.837H359.393L389.201 262.48L359.471 313.986V313.98ZM300.594 312.426H358.572L387.408 262.474L358.494 212.384H300.678L271.764 262.474L300.594 312.42V312.426Z" fill="white"/>
<path d="M454.615 368.833H394.844L365.115 317.328L394.844 265.822H454.615L484.345 317.328L454.615 368.833ZM395.744 367.28H453.722L482.558 317.328L453.722 267.376H395.744L366.908 317.328L395.744 367.28Z" fill="white"/>
<path d="M181.286 289.895H121.671L91.8636 238.257L121.593 186.752H181.364L211.094 238.257L181.286 289.895ZM122.565 288.341H180.387L209.3 238.251L180.464 188.299H122.487L93.6509 238.257L122.559 288.341H122.565Z" fill="white"/>
<path d="M294.663 185.33H234.892L205.162 133.824L234.892 82.3185H294.663L324.392 133.824L294.663 185.33ZM235.791 183.776H293.769L322.605 133.824L293.769 83.8722H235.791L206.961 133.824L235.791 183.776Z" fill="white"/>
</g>
</g>
</svg>
